<svg width="295.2" height="47.787" viewBox="0 0 295.2 47.787" xmlns="http://www.w3.org/2000/svg" class="animated-svg"><style>
        .animated-svg path {
          stroke-dasharray: 1000;
          stroke-dashoffset: 1000;
          stroke: #403b3b;
          animation: draw 6s ease-in-out infinite;
          animation-play-state: running;
        }
        @keyframes draw {
          0% { stroke-dashoffset: 1000; }
          50% { stroke-dashoffset: 0; }
          100% { stroke-dashoffset: -1000; }
        }
      </style><g id="svgGroup" stroke-linecap="round" fill-rule="evenodd" font-size="9pt" stroke="#000000" stroke-width="0.25mm" fill="#403b3b" style="stroke:#000000;stroke-width:0.25mm;fill:#403b3b"><path d="M 128.104 18.431 A 3.535 3.535 0 0 0 127.95 18.434 Q 129.05 18.784 129.775 19.609 Q 130.5 20.434 130.8 21.284 A 5.781 5.781 0 0 1 131.127 22.589 A 5.82 5.82 0 0 0 129.5 24.434 Q 128.35 26.384 128.35 28.534 Q 128.35 30.684 129.5 32.634 A 5.82 5.82 0 0 0 131.449 34.7 A 5.666 5.666 0 0 1 130.65 35.484 A 5.114 5.114 0 0 0 131.779 34.895 A 5.82 5.82 0 0 0 132.65 35.284 A 11.688 11.688 0 0 1 132.012 34.724 A 5.114 5.114 0 0 0 133.05 33.634 Q 134.05 32.284 134.05 30.834 A 4.712 4.712 0 0 0 133.801 29.376 A 4.744 4.744 0 0 0 133.975 29.609 Q 135 30.984 136.4 31.534 Q 135.25 30.534 134.7 29.234 Q 134.15 27.934 134.15 26.734 Q 134.15 25.534 134.7 24.234 Q 135.25 22.934 136.4 21.984 Q 135 22.484 133.975 23.859 Q 132.95 25.234 132.95 26.734 A 4.744 4.744 0 0 0 133.202 28.189 A 4.712 4.712 0 0 0 133.05 27.984 Q 132.05 26.634 130.65 26.134 Q 131.8 27.084 132.325 28.359 Q 132.85 29.634 132.85 30.834 Q 132.85 31.984 132.325 33.259 A 5.666 5.666 0 0 1 131.683 34.4 A 11.688 11.688 0 0 1 129.925 32.084 Q 128.85 30.234 128.85 28.534 Q 128.85 26.834 129.925 24.984 A 11.688 11.688 0 0 1 131.174 23.223 A 5.781 5.781 0 0 1 131.175 23.259 Q 131.2 24.334 130.65 25.334 Q 131.55 24.584 131.95 23.259 A 4.388 4.388 0 0 0 132.142 22.224 A 11.688 11.688 0 0 1 132.65 21.784 A 5.82 5.82 0 0 0 132.15 21.986 A 3.357 3.357 0 0 0 131.95 20.834 Q 131.5 19.784 130.3 19.084 A 4.344 4.344 0 0 0 128.104 18.431 Z M 259.222 14.995 A 5.646 5.646 0 0 0 259.2 14.984 A 11.942 11.942 0 0 1 259.212 14.996 A 5.127 5.127 0 0 0 257.15 15.834 Q 255.65 16.834 254.95 18.384 A 5.74 5.74 0 0 0 254.373 20.917 A 6.587 6.587 0 0 0 254.425 21.734 Q 254.65 23.534 255.85 24.734 Q 255.1 23.184 254.95 21.509 Q 254.8 19.834 255.4 18.584 A 5.747 5.747 0 0 1 256.092 17.512 A 4.162 4.162 0 0 1 256.95 18.909 Q 257.3 19.884 257.3 20.784 Q 257.3 21.684 256.95 22.659 Q 256.6 23.634 255.75 24.384 Q 256.8 23.984 257.65 22.959 A 3.356 3.356 0 0 0 258.127 22.265 A 5.788 5.788 0 0 0 258.2 22.809 Q 258.5 24.484 259.55 25.534 A 5.91 5.91 0 0 1 259.017 23.114 A 5.604 5.604 0 0 1 259.025 22.809 Q 259.1 21.434 259.6 20.384 Q 260.15 19.284 261.175 18.384 A 5.714 5.714 0 0 1 261.416 18.187 A 11.942 11.942 0 0 1 261.45 18.259 Q 262.3 20.084 262.15 21.684 Q 262 23.284 260.825 24.909 A 11.756 11.756 0 0 1 259.421 26.522 A 4.428 4.428 0 0 0 257.75 27.959 Q 257 28.984 257.05 30.034 Q 257.1 31.134 257.975 32.059 Q 258.85 32.984 259.9 33.334 Q 259 32.684 258.65 31.759 Q 258.3 30.834 258.25 29.984 A 4.872 4.872 0 0 1 258.242 29.698 A 5.948 5.948 0 0 1 258.45 28.184 A 3.552 3.552 0 0 1 258.759 27.421 A 5.686 5.686 0 0 0 261.175 25.459 Q 262.45 23.734 262.65 21.734 A 7.126 7.126 0 0 0 262.686 21.025 A 7.495 7.495 0 0 0 261.944 17.824 A 5.714 5.714 0 0 1 263.65 17.134 A 4.58 4.58 0 0 0 263.178 17.11 A 5.37 5.37 0 0 0 261.704 17.34 A 5.646 5.646 0 0 0 259.575 15.181 A 9.228 9.228 0 0 1 260.35 14.934 A 5.235 5.235 0 0 0 260.043 14.925 A 5.127 5.127 0 0 0 259.222 14.995 Z M 73.65 14.734 A 2.906 2.906 0 0 1 73.469 13.722 A 3.331 3.331 0 0 1 73.625 12.734 Q 73.95 11.684 74.7 11.034 Q 75.5 10.384 76.6 10.259 Q 77.7 10.134 78.55 10.634 A 5.978 5.978 0 0 0 77.59 10.552 A 3.783 3.783 0 0 0 75.05 11.434 Q 73.65 12.584 73.65 14.734 Q 72.1 15.434 71.25 17.034 A 6.127 6.127 0 0 0 70.489 19.937 A 5.732 5.732 0 0 0 70.5 20.284 A 6.13 6.13 0 0 0 70.577 20.939 A 4.177 4.177 0 0 0 70.575 20.934 Q 70.05 19.884 69.15 19.484 Q 68.2 19.134 67.075 19.484 Q 65.95 19.834 65.3 20.534 A 3.011 3.011 0 0 1 66.724 20.166 A 2.947 2.947 0 0 1 67.05 20.184 Q 67.95 20.284 68.65 20.584 Q 69.4 20.884 70.075 21.459 Q 70.75 22.034 71.05 22.984 A 3.49 3.49 0 0 0 71.054 22.81 A 4.177 4.177 0 0 0 71.029 22.411 A 6.13 6.13 0 0 0 71.65 23.484 A 5.018 5.018 0 0 0 73.764 25.278 A 5.841 5.841 0 0 1 74.55 26.884 Q 74.85 27.834 74.75 29.034 Q 74.65 30.234 73.95 31.284 Q 75 30.534 75.55 29.159 A 4.16 4.16 0 0 0 75.868 27.609 A 3.506 3.506 0 0 0 75.7 26.534 Q 75.35 25.284 74.125 24.434 A 5.034 5.034 0 0 0 72.451 23.631 A 10.238 10.238 0 0 1 72.025 23.034 Q 71.1 21.634 71 20.284 Q 70.95 18.934 71.7 17.409 Q 72.45 15.884 73.65 14.734 Z M 170.75 26.934 A 5.077 5.077 0 0 0 169.467 25.46 A 5.91 5.91 0 0 1 168.967 23.114 A 5.604 5.604 0 0 1 168.975 22.809 Q 169.05 21.434 169.55 20.384 Q 170.1 19.284 171.125 18.384 Q 172.15 17.484 173.6 17.134 A 4.58 4.58 0 0 0 173.128 17.11 A 5.37 5.37 0 0 0 170.65 17.759 Q 169.15 18.534 168.5 19.834 A 4.309 4.309 0 0 0 168.055 21.789 A 5.788 5.788 0 0 0 168.15 22.809 A 4.982 4.982 0 0 0 169.349 25.371 A 5.077 5.077 0 0 0 168.05 24.684 Q 169.45 25.834 170.35 27.384 Q 171.25 28.934 171.25 30.384 Q 171.25 31.784 170.35 33.359 Q 169.45 34.934 168.1 36.084 A 4.967 4.967 0 0 0 169.403 35.391 A 4.252 4.252 0 0 0 169.275 36.134 A 4.174 4.174 0 0 0 169.252 36.567 A 2.911 2.911 0 0 0 169.7 38.184 Q 170.3 39.034 171.475 39.384 A 4.54 4.54 0 0 0 172.769 39.588 A 3.251 3.251 0 0 0 173.6 39.484 Q 172.6 39.384 171.875 38.809 Q 171.15 38.234 170.7 37.534 Q 170.25 36.834 170 35.959 A 3.283 3.283 0 0 1 169.875 35.053 A 3.989 3.989 0 0 1 169.876 34.993 A 4.967 4.967 0 0 0 170.775 33.834 Q 171.75 32.184 171.75 30.384 Q 171.75 28.584 170.75 26.934 Z M 35.696 2.841 A 4.72 4.72 0 0 0 33.8 3.234 Q 35.45 3.134 37.025 3.584 Q 38.6 4.034 39.55 4.984 Q 40.45 5.934 40.85 7.534 A 9.669 9.669 0 0 1 41.037 8.473 A 5.065 5.065 0 0 0 40.225 9.034 A 6.466 6.466 0 0 0 39.653 9.545 A 4.518 4.518 0 0 0 38.9 8.559 Q 37.75 7.334 36.35 6.984 Q 37.55 7.784 38.225 8.984 A 5.826 5.826 0 0 1 38.856 10.523 A 6.466 6.466 0 0 0 38.15 11.934 A 6.144 6.144 0 0 0 37.781 14.05 A 7.176 7.176 0 0 0 37.923 15.448 A 5.894 5.894 0 0 1 37.35 16.134 A 4.874 4.874 0 0 0 37.987 15.763 A 4.95 4.95 0 0 0 39.65 18.434 A 9.322 9.322 0 0 1 38.483 15.371 A 4.874 4.874 0 0 0 39.5 14.084 Q 40.35 12.634 40.2 11.184 A 4.518 4.518 0 0 0 39.913 10.086 A 5.94 5.94 0 0 1 40.45 9.609 A 10.687 10.687 0 0 1 41.109 9.104 A 9.669 9.669 0 0 1 41.141 9.888 A 9.895 9.895 0 0 1 41.1 10.784 A 4.789 4.789 0 0 0 41.555 8.805 A 10.687 10.687 0 0 1 43.5 7.834 A 5.065 5.065 0 0 0 41.531 8.232 A 5.528 5.528 0 0 0 41.425 7.559 Q 41.05 5.834 39.9 4.634 Q 38.75 3.434 37.025 3.009 A 5.545 5.545 0 0 0 35.696 2.841 Z M 43.65 30.734 Q 44.15 29.334 45.5 28.334 A 4.479 4.479 0 0 1 48.207 27.382 A 4.277 4.277 0 0 1 48.35 27.384 Q 49.2 27.384 50.075 27.759 Q 50.95 28.134 51.6 28.784 Q 50.7 27.634 50.5 26.334 Q 51.25 27.684 52.425 28.484 Q 53.6 29.284 54.8 29.534 Q 55.85 29.134 56.7 29.434 Q 56.85 29.484 57 29.584 Q 57.8 29.434 58.55 29.109 Q 59.3 28.784 60 28.234 Q 59.8 28.584 59.55 28.884 Q 60.15 28.534 60.75 28.484 Q 60.15 28.784 59.925 29.334 Q 59.7 29.884 59.55 30.384 Q 59.4 30.934 59.325 31.509 A 1.398 1.398 0 0 0 59.313 31.69 A 1.591 1.591 0 0 0 59.65 32.634 Q 59.1 32.284 58.65 31.509 A 2.031 2.031 0 0 1 58.338 30.496 A 1.392 1.392 0 0 1 58.4 30.084 L 58.5 29.784 Q 58.2 29.984 57.8 30.184 Q 58.8 31.284 58.85 32.734 Q 58.55 31.884 57.9 31.409 Q 57.25 30.934 56.55 30.634 A 5.491 5.491 0 0 1 55.277 30.79 A 4.652 4.652 0 0 1 54.55 30.734 Q 54.15 30.634 53.75 30.434 Q 53.35 30.584 53 30.784 Q 53.2 30.534 53.45 30.334 Q 52.8 29.984 52.25 29.484 Q 52.75 30.084 53 30.784 Q 52.05 29.684 50.775 29.134 Q 49.5 28.584 48.35 28.584 A 4.816 4.816 0 0 0 48.149 28.58 A 5.723 5.723 0 0 0 45.875 29.084 Q 44.6 29.634 43.65 30.734 Z M 197.15 25.684 Q 198.4 26.134 199.375 27.384 Q 200.35 28.634 200.35 29.984 Q 200.35 31.334 199.375 32.584 A 4.974 4.974 0 0 1 197.974 33.876 A 10.318 10.318 0 0 0 197.622 35.952 A 4.152 4.152 0 0 1 197.9 37.109 A 4.179 4.179 0 0 1 197.932 37.617 A 2.821 2.821 0 0 1 197.79 38.569 A 6.121 6.121 0 0 0 198.55 40.384 Q 199.35 41.634 201 42.434 Q 202.65 43.234 204.45 43.434 A 4.859 4.859 0 0 1 203.235 43.59 A 5.312 5.312 0 0 1 200.925 43.034 Q 199.15 42.184 198.15 40.684 A 6.465 6.465 0 0 1 197.419 39.297 A 2.965 2.965 0 0 1 195.775 40.384 A 4.591 4.591 0 0 1 194.464 40.588 A 3.548 3.548 0 0 1 193.6 40.484 Q 194.6 40.384 195.325 39.784 Q 196.05 39.184 196.5 38.534 A 5.88 5.88 0 0 0 197.016 37.512 A 6.465 6.465 0 0 1 197 37.234 A 6.284 6.284 0 0 1 196.992 36.912 A 5.155 5.155 0 0 1 197.218 35.335 A 3.661 3.661 0 0 0 197.15 35.084 A 4.152 4.152 0 0 1 197.251 35.232 A 5.155 5.155 0 0 1 197.904 33.919 A 4.974 4.974 0 0 1 197.15 34.284 Q 198.2 33.434 198.675 32.259 Q 199.15 31.084 199.15 29.984 Q 199.15 28.884 198.675 27.709 Q 198.2 26.534 197.15 25.684 Z M 94.95 32.734 Q 95.45 32.034 96.45 31.559 A 2.87 2.87 0 0 1 97.674 31.248 A 1.918 1.918 0 0 1 98.25 31.334 Q 99.1 31.584 99.675 32.509 Q 100.25 33.434 100.3 34.334 A 2.664 2.664 0 0 0 100.104 33.951 A 10.318 10.318 0 0 0 99.75 36.632 A 10.636 10.636 0 0 0 99.775 37.359 A 6.121 6.121 0 0 0 100.219 39.441 A 2.462 2.462 0 0 0 100.25 39.384 Q 100.6 38.684 100.75 38.034 A 5.976 5.976 0 0 0 100.879 36.779 A 6.82 6.82 0 0 0 100.875 36.559 Q 100.85 35.784 100.3 35.134 Q 101.05 35.584 101.575 36.509 A 2.63 2.63 0 0 1 101.955 37.809 A 2.066 2.066 0 0 1 101.9 38.284 Q 101.7 39.134 100.825 39.759 A 3.737 3.737 0 0 1 100.476 39.995 A 6.121 6.121 0 0 0 100.7 40.384 Q 101.5 41.634 103.15 42.434 Q 104.8 43.234 106.6 43.434 A 4.859 4.859 0 0 1 105.385 43.59 A 5.312 5.312 0 0 1 103.075 43.034 Q 101.3 42.184 100.3 40.684 A 6.465 6.465 0 0 1 100.012 40.23 A 3.737 3.737 0 0 1 99.1 40.484 A 2.462 2.462 0 0 0 99.855 39.941 A 6.465 6.465 0 0 1 99.15 37.234 A 6.284 6.284 0 0 1 99.142 36.912 A 5.155 5.155 0 0 1 100.069 33.896 A 2.664 2.664 0 0 0 99.275 33.109 Q 98.6 32.684 97.95 32.484 Q 97.25 32.284 96.475 32.259 A 2.288 2.288 0 0 0 96.401 32.258 A 2.592 2.592 0 0 0 94.95 32.734 Z M 197.15 15.484 Q 198.55 15.984 199.6 17.384 Q 200.65 18.784 200.65 20.284 Q 200.65 21.784 199.6 23.184 Q 198.55 24.584 197.15 25.084 Q 198.3 24.134 198.875 22.809 A 6.345 6.345 0 0 0 199.448 20.374 A 10.408 10.408 0 0 0 197.3 22.334 Q 196.1 23.784 195.9 25.284 A 5.178 5.178 0 0 0 195.831 26.137 A 6.891 6.891 0 0 0 196.3 28.534 Q 196.95 30.284 198.2 31.684 Q 196.55 30.784 195.825 28.909 A 7.277 7.277 0 0 1 195.312 26.269 A 6.768 6.768 0 0 1 195.4 25.184 Q 195.7 23.334 197 21.809 A 5.364 5.364 0 0 1 199.445 20.119 A 6.345 6.345 0 0 0 198.875 17.759 Q 198.3 16.434 197.15 15.484 Z M 99.85 16.334 Q 100.8 16.884 101.45 18.009 A 3.6 3.6 0 0 1 101.978 19.821 A 3.056 3.056 0 0 1 101.972 20.007 A 5.364 5.364 0 0 1 102.3 19.934 A 10.408 10.408 0 0 0 101.962 20.136 A 3.056 3.056 0 0 1 101.95 20.234 Q 101.75 21.334 100.775 22.184 A 4.322 4.322 0 0 1 98.807 23.211 A 5.861 5.861 0 0 0 98.05 25.284 A 5.178 5.178 0 0 0 97.981 26.137 A 6.891 6.891 0 0 0 98.45 28.534 Q 99.1 30.284 100.35 31.684 Q 98.7 30.784 97.975 28.909 A 7.277 7.277 0 0 1 97.462 26.269 A 6.768 6.768 0 0 1 97.517 25.414 A 2.821 2.821 0 0 1 96.15 26.834 Q 95.3 27.284 94.125 26.984 Q 92.95 26.684 92.25 25.984 A 3.2 3.2 0 0 0 93.559 26.275 A 2.981 2.981 0 0 0 94.05 26.234 Q 94.95 26.084 95.65 25.784 Q 96.35 25.434 97.025 24.809 Q 97.7 24.184 97.95 23.234 A 3.376 3.376 0 0 1 97.967 23.57 A 4.257 4.257 0 0 1 97.961 23.734 A 6.817 6.817 0 0 1 99.15 21.809 A 5.364 5.364 0 0 1 100.627 20.555 A 5.995 5.995 0 0 0 100.75 20.034 A 4.692 4.692 0 0 0 100.819 19.218 A 5.997 5.997 0 0 0 100.725 18.184 Q 100.55 17.184 99.85 16.334 Z M 225.954 18.431 A 3.535 3.535 0 0 0 225.8 18.434 Q 226.9 18.784 227.625 19.609 A 5.168 5.168 0 0 1 228.3 20.536 A 4.967 4.967 0 0 0 227.825 21.234 Q 226.85 22.884 226.85 24.634 Q 226.85 26.434 227.825 28.084 Q 228.8 29.734 230.5 30.334 Q 229.15 29.184 228.25 27.634 Q 227.35 26.084 227.35 24.634 Q 227.35 23.234 228.25 21.684 A 10.339 10.339 0 0 1 228.591 21.134 A 5.168 5.168 0 0 1 228.65 21.284 Q 229 22.184 229.025 23.259 Q 229.05 24.334 228.5 25.334 Q 229.4 24.584 229.8 23.259 Q 230.2 21.934 229.8 20.834 A 3.769 3.769 0 0 0 229.365 20.113 A 10.339 10.339 0 0 1 230.5 18.984 A 4.967 4.967 0 0 0 229.071 19.774 A 3.769 3.769 0 0 0 228.15 19.084 A 4.344 4.344 0 0 0 225.954 18.431 Z M 200.9 19.684 Q 202.9 20.384 204.025 22.334 Q 205.15 24.284 205.15 26.384 Q 205.15 28.484 204.025 30.434 A 5.713 5.713 0 0 1 201.533 32.819 A 4.965 4.965 0 0 0 201.468 33.638 A 6.205 6.205 0 0 0 201.575 34.759 Q 201.8 35.984 202.6 37.034 Q 201.5 36.334 200.825 34.934 A 4.566 4.566 0 0 1 200.332 32.944 A 3.751 3.751 0 0 1 200.4 32.234 Q 200.7 30.934 201.875 29.909 A 4.542 4.542 0 0 1 204.159 28.765 A 6.948 6.948 0 0 0 204.65 26.384 Q 204.65 24.684 203.575 22.859 Q 202.5 21.034 200.9 19.684 Z M 55 17.884 L 55.1 17.734 Q 54.85 17.434 54.7 17.134 Q 54.95 17.384 55.25 17.534 Q 56.2 16.434 57.725 15.884 A 5.339 5.339 0 0 1 59.542 15.548 A 4.55 4.55 0 0 1 60.65 15.684 Q 61.75 15.984 62.7 16.834 L 62.5 16.434 Q 63.3 17.384 64.35 17.784 Q 65.4 18.184 66.4 18.184 Q 67.4 18.184 68.45 17.784 Q 69.5 17.384 70.3 16.434 Q 69.9 17.584 68.775 18.484 Q 67.65 19.384 66.4 19.384 Q 65.05 19.384 63.85 18.284 Q 64.4 19.334 64.5 20.384 Q 64 19.284 63.15 18.459 Q 62.3 17.634 61.35 17.234 Q 60.9 18.034 60.125 18.659 Q 59.35 19.284 58.5 19.384 Q 57.6 19.534 56.675 19.034 Q 55.75 18.534 55.15 17.784 Q 55.1 17.834 55 17.884 Z M 134.826 38.506 A 4.993 4.993 0 0 0 134.553 36.874 A 2.778 2.778 0 0 0 134.75 37.109 A 3.754 3.754 0 0 0 136.4 38.284 Q 135.7 37.684 135.45 36.859 Q 135.2 36.034 135.2 35.284 Q 135.2 34.534 135.45 33.734 Q 135.7 32.934 136.4 32.334 Q 135.5 32.634 134.75 33.509 Q 134 34.384 134 35.284 A 2.778 2.778 0 0 0 134.414 36.671 A 9.781 9.781 0 0 1 134.436 37.32 A 9.446 9.446 0 0 1 134.075 39.909 Q 133.6 41.584 132.6 42.584 Q 131.6 43.534 129.9 43.959 A 10.436 10.436 0 0 1 127.36 44.273 A 10.647 10.647 0 0 1 126.45 44.234 Q 128.05 44.984 129.875 44.559 Q 131.7 44.134 132.95 42.934 Q 134.2 41.684 134.65 39.884 A 5.67 5.67 0 0 0 134.826 38.506 Z M 208.1 24.034 L 208.2 23.984 Q 207.4 23.384 206.95 22.584 Q 208.05 23.484 209.4 23.884 Q 209.95 23.884 210.55 24.084 A 7.515 7.515 0 0 0 211.05 24.101 A 7.558 7.558 0 0 0 212.05 24.034 Q 212.65 23.934 213.25 23.684 Q 213.2 22.734 213.7 22.084 Q 214.1 21.584 214.825 21.359 A 4.037 4.037 0 0 1 216.028 21.175 A 4.087 4.087 0 0 1 216.3 21.184 Q 216.35 21.084 216.35 21.034 L 216.35 21.184 Q 216.75 21.184 217.15 21.334 Q 216.65 21.334 216.25 21.484 Q 215.65 23.534 213.75 24.634 A 3.293 3.293 0 0 0 213.733 24.962 A 2.86 2.86 0 0 0 213.8 25.584 Q 213.55 25.284 213.45 24.834 Q 212.95 25.084 212.5 25.184 Q 212.8 25.434 213 25.734 Q 212.55 25.434 212.05 25.234 A 4.089 4.089 0 0 1 211.497 25.272 A 4.635 4.635 0 0 1 209.8 24.934 Q 209.1 24.984 208.45 25.184 Q 207.45 25.484 206.5 26.259 Q 205.55 27.034 205.05 28.284 Q 205.1 26.934 205.975 25.684 Q 206.85 24.434 208.1 24.034 Z M 110.25 24.034 L 110.35 23.984 Q 109.55 23.384 109.1 22.584 Q 110.2 23.484 111.55 23.884 Q 112.1 23.884 112.7 24.084 A 7.515 7.515 0 0 0 113.2 24.101 A 7.558 7.558 0 0 0 114.2 24.034 Q 114.8 23.934 115.4 23.684 Q 115.35 22.734 115.85 22.084 Q 116.25 21.584 116.975 21.359 A 4.037 4.037 0 0 1 118.178 21.175 A 4.087 4.087 0 0 1 118.45 21.184 Q 118.5 21.084 118.5 21.034 L 118.5 21.184 Q 118.9 21.184 119.3 21.334 Q 118.8 21.334 118.4 21.484 Q 117.8 23.534 115.9 24.634 A 3.293 3.293 0 0 0 115.883 24.962 A 2.86 2.86 0 0 0 115.95 25.584 Q 115.7 25.284 115.6 24.834 Q 115.1 25.084 114.65 25.184 Q 114.95 25.434 115.15 25.734 Q 114.7 25.434 114.2 25.234 A 4.089 4.089 0 0 1 113.647 25.272 A 4.635 4.635 0 0 1 111.95 24.934 Q 111.25 24.984 110.6 25.184 Q 109.6 25.484 108.65 26.259 Q 107.7 27.034 107.2 28.284 Q 107.25 26.934 108.125 25.684 Q 109 24.434 110.25 24.034 Z M 228.5 26.134 Q 229.9 26.634 230.9 27.984 A 4.712 4.712 0 0 1 231.751 29.709 A 2.968 2.968 0 0 1 232.525 27.809 Q 233.3 26.884 234.25 26.534 Q 233.5 27.184 233.225 28.059 Q 232.95 28.934 232.95 29.734 Q 232.95 30.534 233.225 31.409 Q 233.5 32.284 234.25 32.934 Q 233.3 32.584 232.525 31.659 A 2.968 2.968 0 0 1 231.889 30.558 A 4.712 4.712 0 0 1 231.9 30.834 Q 231.9 32.284 230.9 33.634 Q 229.9 34.984 228.5 35.484 Q 229.65 34.534 230.175 33.259 Q 230.7 31.984 230.7 30.834 Q 230.7 29.634 230.175 28.359 Q 229.65 27.084 228.5 26.134 Z M 161.126 17.222 A 4.251 4.251 0 0 0 160.8 17.234 Q 162.05 17.584 162.95 18.434 Q 163.85 19.284 164.3 20.234 A 5.965 5.965 0 0 1 164.349 20.349 A 5.74 5.74 0 0 0 164.323 20.917 A 6.587 6.587 0 0 0 164.375 21.734 A 4.987 4.987 0 0 0 164.771 23.226 A 5.286 5.286 0 0 1 164.3 24.884 A 4.974 4.974 0 0 0 165.085 23.825 A 4.987 4.987 0 0 0 165.8 24.734 A 9.242 9.242 0 0 1 165.281 23.428 A 4.974 4.974 0 0 0 165.6 22.434 A 4.933 4.933 0 0 0 165.736 21.313 A 3.743 3.743 0 0 0 165.4 19.734 A 4.02 4.02 0 0 0 165.104 19.221 A 5.187 5.187 0 0 1 165.35 18.584 Q 165.9 17.384 167.275 16.384 Q 168.65 15.384 170.3 14.934 A 5.235 5.235 0 0 0 169.993 14.925 A 5.127 5.127 0 0 0 167.1 15.834 Q 165.6 16.834 164.9 18.384 A 5.74 5.74 0 0 0 164.736 18.756 A 4.02 4.02 0 0 0 163.475 17.834 A 5.158 5.158 0 0 0 161.126 17.222 Z M 79.475 27.959 A 4.799 4.799 0 0 0 79.311 27.65 A 2.535 2.535 0 0 0 80.275 27.934 Q 81.4 28.084 82.3 27.734 Q 81.35 27.734 80.65 27.284 Q 79.95 26.834 79.45 26.284 Q 78.95 25.684 78.6 24.934 Q 78.25 24.184 78.4 23.234 Q 77.95 24.034 77.925 25.184 A 3.891 3.891 0 0 0 77.924 25.269 A 2.491 2.491 0 0 0 78.076 26.244 A 4.799 4.799 0 0 0 77.25 25.734 Q 78.4 26.884 79.075 28.334 A 5.717 5.717 0 0 1 79.663 30.746 A 4.405 4.405 0 0 1 79.65 31.084 Q 79.5 32.334 78.6 33.659 Q 77.7 34.984 76.4 35.934 Q 77.95 35.484 78.975 34.109 Q 80 32.734 80.1 31.134 A 5.872 5.872 0 0 0 80.124 30.602 A 5.766 5.766 0 0 0 79.475 27.959 Z M 273.9 28.184 L 273.9 27.984 A 3.016 3.016 0 0 1 273.089 28.093 A 3.849 3.849 0 0 1 271.95 27.909 Q 270.9 27.584 270.2 26.934 Q 271.15 27.334 272.075 27.234 Q 273 27.134 273.75 26.784 Q 274.3 26.534 274.7 26.234 Q 275.05 25.784 275.5 25.434 Q 275.95 24.884 276.15 24.134 A 2.765 2.765 0 0 1 276.167 24.44 A 3.284 3.284 0 0 1 276.1 25.084 L 276.5 24.884 Q 276.25 25.084 276.05 25.334 Q 275.85 26.334 275.2 27.084 Q 275.1 27.634 275.1 28.184 Q 275.1 29.034 275.4 29.934 Q 275.7 30.834 276.5 31.534 Q 276.1 31.384 275.75 31.134 Q 276.05 31.684 276.15 32.284 Q 275.7 31.484 274.975 31.134 Q 274.25 30.784 273.5 30.634 A 5.885 5.885 0 0 0 272.667 30.577 A 7.151 7.151 0 0 0 272 30.609 Q 271.2 30.684 270.5 31.234 Q 270.95 30.484 271.9 29.909 A 2.842 2.842 0 0 1 273.375 29.453 A 2.274 2.274 0 0 1 273.75 29.484 Q 274.05 29.534 274.35 29.684 Q 273.9 28.934 273.9 28.184 Z M 183.85 28.184 L 183.85 27.984 A 3.016 3.016 0 0 1 183.039 28.093 A 3.849 3.849 0 0 1 181.9 27.909 Q 180.85 27.584 180.15 26.934 Q 181.1 27.334 182.025 27.234 Q 182.95 27.134 183.7 26.784 Q 184.25 26.534 184.65 26.234 Q 185 25.784 185.45 25.434 Q 185.9 24.884 186.1 24.134 A 2.765 2.765 0 0 1 186.117 24.44 A 3.284 3.284 0 0 1 186.05 25.084 L 186.45 24.884 Q 186.2 25.084 186 25.334 Q 185.8 26.334 185.15 27.084 Q 185.05 27.634 185.05 28.184 Q 185.05 29.034 185.35 29.934 Q 185.65 30.834 186.45 31.534 Q 186.05 31.384 185.7 31.134 Q 186 31.684 186.1 32.284 Q 185.65 31.484 184.925 31.134 Q 184.2 30.784 183.45 30.634 A 5.885 5.885 0 0 0 182.617 30.577 A 7.151 7.151 0 0 0 181.95 30.609 Q 181.15 30.684 180.45 31.234 Q 180.9 30.484 181.85 29.909 A 2.842 2.842 0 0 1 183.325 29.453 A 2.274 2.274 0 0 1 183.7 29.484 Q 184 29.534 184.3 29.684 Q 183.85 28.934 183.85 28.184 Z M 96.4 44.234 Q 95.2 46.034 93.025 46.734 A 8.165 8.165 0 0 1 90.513 47.142 A 7.587 7.587 0 0 1 88.75 46.934 Q 86.65 46.434 84.975 44.859 Q 83.3 43.284 83.05 41.134 Q 84.05 43.084 85.6 44.584 Q 87.15 46.084 88.85 46.434 A 5.858 5.858 0 0 0 90.196 46.586 A 7.961 7.961 0 0 0 92.6 46.184 Q 94.65 45.534 96.4 44.234 Z M 290.95 19.684 Q 292.95 20.384 294.075 22.334 Q 295.2 24.284 295.2 26.384 Q 295.2 28.484 294.075 30.434 Q 292.95 32.384 290.95 33.084 Q 292.55 31.734 293.625 29.909 Q 294.7 28.084 294.7 26.384 Q 294.7 24.684 293.625 22.859 Q 292.55 21.034 290.95 19.684 Z M 164.35 25.684 Q 165.55 26.134 166.475 27.309 A 3.943 3.943 0 0 1 167.242 28.741 A 3.27 3.27 0 0 1 167.7 27.959 Q 168.45 26.934 169.45 26.484 Q 168.65 27.234 168.4 28.184 A 5.948 5.948 0 0 0 168.192 29.698 A 4.872 4.872 0 0 0 168.2 29.984 Q 168.25 30.834 168.6 31.759 Q 168.95 32.684 169.85 33.334 Q 168.8 32.984 167.925 32.059 A 3.109 3.109 0 0 1 167.202 30.958 A 3.943 3.943 0 0 1 166.475 32.259 Q 165.55 33.434 164.35 33.884 Q 165.35 33.034 165.775 31.934 Q 166.2 30.834 166.2 29.784 Q 166.2 28.734 165.775 27.634 Q 165.35 26.534 164.35 25.684 Z M 119.65 11.784 Q 121.05 10.284 123.225 9.984 A 8.162 8.162 0 0 1 124.341 9.906 A 7.165 7.165 0 0 1 127.3 10.534 Q 129.2 11.334 130.475 13.084 A 5.832 5.832 0 0 1 131.657 16.587 A 6.087 6.087 0 0 1 131.65 16.884 Q 131.05 14.934 129.825 13.284 Q 128.6 11.634 127.1 10.984 A 6.114 6.114 0 0 0 124.646 10.515 A 9.063 9.063 0 0 0 123.55 10.584 Q 121.5 10.834 119.65 11.784 Z M 217.5 11.784 Q 218.9 10.284 221.075 9.984 A 8.162 8.162 0 0 1 222.191 9.906 A 7.165 7.165 0 0 1 225.15 10.534 Q 227.05 11.334 228.325 13.084 A 5.832 5.832 0 0 1 229.507 16.587 A 6.087 6.087 0 0 1 229.5 16.884 Q 228.9 14.934 227.675 13.284 Q 226.45 11.634 224.95 10.984 A 6.114 6.114 0 0 0 222.496 10.515 A 9.063 9.063 0 0 0 221.4 10.584 Q 219.35 10.834 217.5 11.784 Z M 59.4 44.734 Q 58.35 46.484 56.325 47.234 A 7.873 7.873 0 0 1 53.575 47.745 A 7.385 7.385 0 0 1 52.3 47.634 Q 50.3 47.284 48.65 45.859 Q 47 44.434 46.65 42.434 Q 47.7 44.184 49.25 45.509 Q 50.8 46.834 52.4 47.134 A 5.357 5.357 0 0 0 53.389 47.224 A 7.436 7.436 0 0 0 55.925 46.734 Q 57.85 46.034 59.4 44.734 Z M 183.2 5.634 Q 183.45 3.584 185.025 2.109 Q 186.6 0.634 188.55 0.184 A 7.471 7.471 0 0 1 190.195 0 A 7.923 7.923 0 0 1 192.6 0.384 Q 194.65 1.034 195.75 2.734 Q 194.15 1.534 192.2 0.909 A 7.733 7.733 0 0 0 189.844 0.508 A 5.572 5.572 0 0 0 188.65 0.634 Q 187.1 1.034 185.625 2.434 Q 184.15 3.834 183.2 5.634 Z M 273.25 5.634 Q 273.5 3.584 275.075 2.109 Q 276.65 0.634 278.6 0.184 A 7.471 7.471 0 0 1 280.245 0 A 7.923 7.923 0 0 1 282.65 0.384 Q 284.7 1.034 285.8 2.734 Q 284.2 1.534 282.25 0.909 A 7.733 7.733 0 0 0 279.894 0.508 A 5.572 5.572 0 0 0 278.7 0.634 Q 277.15 1.034 275.675 2.434 Q 274.2 3.834 273.25 5.634 Z M 145.15 12.234 Q 145.75 10.384 147.5 9.284 Q 149.25 8.184 151.15 8.134 A 7.229 7.229 0 0 1 151.335 8.132 A 7.11 7.11 0 0 1 154.875 9.084 Q 156.65 10.084 157.4 11.884 Q 156.1 10.434 154.4 9.509 A 6.473 6.473 0 0 0 151.309 8.632 A 4.943 4.943 0 0 0 151.15 8.634 Q 149.65 8.684 148 9.709 Q 146.35 10.734 145.15 12.234 Z M 62.65 3.184 Q 64.1 1.934 66.15 1.809 A 7.754 7.754 0 0 1 66.622 1.795 A 6.607 6.607 0 0 1 69.9 2.634 Q 71.6 3.534 72.675 5.284 Q 73.75 7.034 73.5 8.934 Q 73.1 7.084 72.075 5.434 Q 71.05 3.784 69.7 3.034 A 6.535 6.535 0 0 0 66.743 2.402 A 9.444 9.444 0 0 0 66.375 2.409 Q 64.45 2.484 62.65 3.184 Z M 271.05 15.584 Q 271.45 14.784 272.35 14.159 A 2.707 2.707 0 0 1 273.902 13.62 A 2.247 2.247 0 0 1 274.15 13.634 Q 274.35 13.634 274.5 13.734 Q 273.7 12.584 273.7 11.384 Q 273.7 10.084 274.625 8.909 Q 275.55 7.734 276.75 7.284 Q 275.75 8.134 275.325 9.234 Q 274.9 10.334 274.9 11.384 Q 274.9 12.434 275.325 13.534 Q 275.75 14.634 276.75 15.484 A 1.954 1.954 0 0 0 276.35 15.334 Q 276.65 15.784 276.75 16.284 Q 276.25 15.534 275.5 15.234 Q 274.75 14.934 274.05 14.834 A 5.114 5.114 0 0 0 273.373 14.79 A 5.653 5.653 0 0 0 272.5 14.859 Q 271.7 14.984 271.05 15.584 Z M 181 15.584 Q 181.4 14.784 182.3 14.159 A 2.707 2.707 0 0 1 183.852 13.62 A 2.247 2.247 0 0 1 184.1 13.634 Q 184.3 13.634 184.45 13.734 Q 183.65 12.584 183.65 11.384 Q 183.65 10.084 184.575 8.909 Q 185.5 7.734 186.7 7.284 Q 185.7 8.134 185.275 9.234 Q 184.85 10.334 184.85 11.384 Q 184.85 12.434 185.275 13.534 Q 185.7 14.634 186.7 15.484 Q 186.5 15.384 186.3 15.334 Q 186.6 15.784 186.7 16.284 Q 186.2 15.534 185.45 15.234 Q 184.7 14.934 184 14.834 A 5.114 5.114 0 0 0 183.323 14.79 A 5.653 5.653 0 0 0 182.45 14.859 Q 181.65 14.984 181 15.584 Z M 10.3 3.234 Q 11.45 1.834 13.35 1.434 Q 15.25 1.034 17 1.634 Q 18.7 2.234 19.95 3.709 Q 21.2 5.184 21.2 6.984 Q 20.55 5.334 19.375 3.959 Q 18.2 2.584 16.8 2.084 A 5.382 5.382 0 0 0 15.089 1.823 A 7.861 7.861 0 0 0 13.675 1.959 Q 11.9 2.284 10.3 3.234 Z M 37.35 16.934 Q 38.45 17.334 39.3 18.409 Q 40.15 19.484 40.15 20.634 Q 40.15 21.784 39.3 22.859 A 4.416 4.416 0 0 1 38.936 23.286 A 3.437 3.437 0 0 0 39.1 24.134 Q 39.35 25.034 40.15 25.834 Q 40.95 26.634 42.05 27.084 Q 40.9 27.034 39.925 26.209 Q 38.95 25.384 38.6 24.284 A 3.709 3.709 0 0 1 38.466 23.706 A 4.416 4.416 0 0 1 37.35 24.334 A 3.972 3.972 0 0 0 38.429 22.987 A 4.335 4.335 0 0 1 38.6 21.959 A 3.362 3.362 0 0 1 38.924 21.142 A 5.884 5.884 0 0 0 38.95 20.634 Q 38.95 19.734 38.6 18.709 Q 38.25 17.684 37.35 16.934 Z M 248.733 39.664 A 5.103 5.103 0 0 0 248.7 39.084 Q 248.3 40.834 247.325 42.334 Q 246.35 43.834 245.1 44.484 A 5.764 5.764 0 0 1 242.49 45.047 A 8.266 8.266 0 0 1 242.025 45.034 Q 240.25 44.934 238.6 44.234 Q 239.9 45.434 241.8 45.584 Q 243.7 45.734 245.3 44.934 Q 246.9 44.084 247.9 42.459 A 5.265 5.265 0 0 0 248.733 39.664 Z M 21.368 39.91 A 4.99 4.99 0 0 0 21.35 39.484 Q 20.9 41.184 19.875 42.659 Q 18.85 44.134 17.55 44.684 Q 16.25 45.284 14.475 45.134 Q 12.7 44.984 11.1 44.234 Q 12.35 45.484 14.25 45.709 A 7.318 7.318 0 0 0 15.111 45.761 A 6.14 6.14 0 0 0 17.75 45.184 Q 19.35 44.434 20.425 42.834 A 5.169 5.169 0 0 0 21.368 39.91 Z M 230.448 16.859 A 5.12 5.12 0 0 0 230.5 17.584 Q 230.85 15.834 231.775 14.334 Q 232.7 12.834 233.95 12.134 Q 235.2 11.484 236.975 11.534 Q 238.75 11.584 240.4 12.234 Q 239.1 11.034 237.2 10.959 A 7.753 7.753 0 0 0 236.894 10.953 A 6.431 6.431 0 0 0 233.75 11.734 Q 232.15 12.534 231.2 14.184 A 5.3 5.3 0 0 0 230.448 16.859 Z M 3.6 29.734 Q 1.95 29.134 0.975 27.509 Q 0 25.884 0 24.134 Q 0 22.384 0.975 20.759 Q 1.95 19.134 3.6 18.534 Q 2.25 19.684 1.375 21.209 Q 0.5 22.734 0.5 24.134 Q 0.5 25.534 1.375 27.059 Q 2.25 28.584 3.6 29.734 Z M 232.676 38.506 A 4.993 4.993 0 0 0 232.25 36.484 Q 232.4 38.234 231.925 39.909 Q 231.45 41.584 230.45 42.584 Q 229.45 43.534 227.75 43.959 A 10.436 10.436 0 0 1 225.21 44.273 A 10.647 10.647 0 0 1 224.3 44.234 Q 225.9 44.984 227.725 44.559 Q 229.55 44.134 230.8 42.934 Q 232.05 41.684 232.5 39.884 A 5.67 5.67 0 0 0 232.676 38.506 Z M 92.7 2.884 Q 94.35 2.684 95.85 3.634 Q 97.35 4.584 98.05 6.034 Q 98.8 7.534 98.65 9.284 Q 98.5 11.034 97.35 12.234 Q 98 10.734 98.1 9.084 A 8.199 8.199 0 0 0 98.115 8.588 A 5.292 5.292 0 0 0 97.65 6.284 Q 97.05 5.084 95.675 4.159 Q 94.3 3.234 92.7 2.884 Z M 149.5 27.784 L 149.45 27.634 A 4.314 4.314 0 0 1 147.928 27.923 A 3.886 3.886 0 0 1 147.1 27.834 Q 147.85 27.734 148.4 27.359 Q 148.95 26.984 149.35 26.484 Q 149.45 24.934 150.45 23.684 Q 150.45 23.284 150.35 22.934 Q 150.55 23.184 150.65 23.484 Q 150.9 23.234 151.15 23.034 Q 150.95 23.384 150.8 23.734 Q 151.05 24.484 151.075 25.284 Q 151.1 26.084 150.7 26.684 Q 150.6 26.834 150.5 26.934 Q 150.55 27.184 150.65 27.434 Q 150.95 28.434 151.675 29.359 Q 152.4 30.284 153.6 30.784 Q 152.3 30.734 151.075 29.884 Q 149.85 29.034 149.5 27.784 Z M 190.05 44.234 Q 189.55 45.734 188.125 46.709 Q 186.7 47.684 185.15 47.784 A 5.843 5.843 0 0 1 184.967 47.787 A 5.98 5.98 0 0 1 182.05 47.009 Q 180.55 46.184 179.9 44.734 Q 181 45.884 182.425 46.609 Q 183.85 47.334 185.1 47.284 Q 186.4 47.184 187.725 46.334 Q 189.05 45.484 190.05 44.234 Z M 280.1 44.234 Q 279.6 45.734 278.175 46.709 Q 276.75 47.684 275.2 47.784 A 5.843 5.843 0 0 1 275.017 47.787 A 5.98 5.98 0 0 1 272.1 47.009 Q 270.6 46.184 269.95 44.734 Q 271.05 45.884 272.475 46.609 Q 273.9 47.334 275.15 47.284 Q 276.45 47.184 277.775 46.334 Q 279.1 45.484 280.1 44.234 Z M 110.55 16.834 Q 110.9 15.284 112.225 14.059 Q 113.55 12.834 115.15 12.634 A 4.509 4.509 0 0 1 115.728 12.597 A 5.211 5.211 0 0 1 118.275 13.309 Q 119.85 14.184 120.6 15.584 Q 119.45 14.534 118 14.084 Q 116.55 13.634 115.25 13.784 Q 114 13.984 112.7 14.759 Q 111.4 15.534 110.55 16.834 Z M 208.4 16.834 Q 208.75 15.284 210.075 14.059 Q 211.4 12.834 213 12.634 A 4.509 4.509 0 0 1 213.578 12.597 A 5.211 5.211 0 0 1 216.125 13.309 Q 217.7 14.184 218.45 15.584 Q 217.3 14.534 215.85 14.084 Q 214.4 13.634 213.1 13.784 Q 211.85 13.984 210.55 14.759 Q 209.25 15.534 208.4 16.834 Z M 53.05 6.984 Q 53.6 5.534 55.025 4.484 A 4.714 4.714 0 0 1 57.859 3.482 A 4.362 4.362 0 0 1 58 3.484 Q 59.55 3.484 60.95 4.534 Q 62.35 5.584 62.85 7.034 Q 61.9 5.834 60.55 5.259 Q 59.2 4.684 58 4.684 Q 56.75 4.634 55.4 5.209 Q 54.05 5.784 53.05 6.984 Z M 17.25 40.434 Q 16.7 41.884 15.275 42.909 Q 13.85 43.934 12.35 43.884 Q 10.8 43.884 9.4 42.809 Q 8 41.734 7.5 40.334 Q 8.5 41.484 9.8 42.084 Q 11.1 42.684 12.35 42.684 Q 13.55 42.734 14.9 42.159 Q 16.25 41.584 17.25 40.434 Z M 287.2 15.484 Q 288.6 15.984 289.65 17.384 Q 290.7 18.784 290.7 20.284 Q 290.7 21.784 289.65 23.184 Q 288.6 24.584 287.2 25.084 Q 288.35 24.134 288.925 22.809 Q 289.5 21.484 289.5 20.284 Q 289.5 19.084 288.925 17.759 Q 288.35 16.434 287.2 15.484 Z M 7.35 39.484 Q 5.95 38.984 4.925 37.584 Q 3.9 36.184 3.9 34.684 Q 3.9 33.184 4.925 31.809 Q 5.95 30.434 7.35 29.934 Q 6.2 30.884 5.65 32.184 Q 5.1 33.484 5.1 34.684 Q 5.1 35.884 5.65 37.209 Q 6.2 38.534 7.35 39.484 Z M 98.35 40.484 Q 97.75 41.834 96.325 42.784 Q 94.9 43.734 93.4 43.634 Q 91.9 43.534 90.6 42.434 Q 89.3 41.334 88.85 39.884 Q 89.75 41.084 91 41.734 Q 92.25 42.384 93.45 42.434 Q 94.65 42.484 95.975 42.034 Q 97.3 41.584 98.35 40.484 Z M 41.1 36.484 Q 41.95 37.684 41.9 39.259 Q 41.85 40.834 41.05 42.034 Q 40.25 43.284 38.825 43.934 A 4.453 4.453 0 0 1 36.962 44.357 A 4.3 4.3 0 0 1 35.95 44.234 Q 37.4 44.084 38.7 43.409 Q 40 42.734 40.65 41.784 Q 41.3 40.784 41.4 39.334 Q 41.5 37.884 41.1 36.484 Z M 44.7 12.334 Q 44.35 10.934 44.875 9.359 Q 45.4 7.784 46.6 6.984 A 4.227 4.227 0 0 1 49.108 6.224 A 5.659 5.659 0 0 1 49.45 6.234 Q 51.1 6.334 52.3 7.134 A 6.612 6.612 0 0 0 50.692 6.93 A 6.012 6.012 0 0 0 49.575 7.034 Q 48.25 7.284 47.3 7.934 Q 46.3 8.584 45.575 9.734 Q 44.85 10.884 44.7 12.334 Z M 187.05 6.534 Q 187.55 5.184 188.825 4.209 Q 190.1 3.234 191.5 3.234 Q 192.9 3.234 194.175 4.209 Q 195.45 5.184 195.95 6.484 Q 195.05 5.434 193.85 4.934 Q 192.65 4.434 191.5 4.434 Q 190.4 4.434 189.175 4.934 Q 187.95 5.434 187.05 6.534 Z M 277.1 6.534 Q 277.6 5.184 278.875 4.209 Q 280.15 3.234 281.55 3.234 Q 282.95 3.234 284.225 4.209 Q 285.5 5.184 286 6.484 Q 285.1 5.434 283.9 4.934 Q 282.7 4.434 281.55 4.434 Q 280.45 4.434 279.225 4.934 Q 278 5.434 277.1 6.534 Z M 8.35 6.984 Q 8.9 5.734 10.25 4.834 Q 11.6 3.934 12.95 4.034 Q 14.35 4.134 15.55 5.209 Q 16.75 6.284 17.15 7.584 Q 16.3 6.484 15.15 5.909 Q 14 5.334 12.9 5.234 A 5.424 5.424 0 0 0 12.654 5.229 A 6.909 6.909 0 0 0 10.55 5.584 Q 9.3 5.984 8.35 6.984 Z M 63.4 40.484 Q 63 41.784 61.775 42.784 Q 60.55 43.784 59.2 43.834 A 3.736 3.736 0 0 1 59.062 43.837 A 4.189 4.189 0 0 1 56.575 42.959 Q 55.3 42.034 54.75 40.784 Q 55.7 41.784 56.875 42.234 Q 58.05 42.684 59.15 42.634 Q 60.25 42.584 61.425 42.059 Q 62.6 41.534 63.4 40.484 Z M 287.2 25.684 Q 288.45 26.134 289.425 27.384 Q 290.4 28.634 290.4 29.984 Q 290.4 31.334 289.425 32.584 Q 288.45 33.834 287.2 34.284 Q 288.25 33.434 288.725 32.259 Q 289.2 31.084 289.2 29.984 Q 289.2 28.884 288.725 27.709 Q 288.25 26.534 287.2 25.684 Z M 27.1 15.884 Q 25.85 15.434 24.9 14.184 Q 23.95 12.934 23.95 11.584 Q 23.95 10.234 24.925 9.009 Q 25.9 7.784 27.15 7.334 Q 26.1 8.184 25.625 9.359 Q 25.15 10.534 25.15 11.634 Q 25.15 12.684 25.6 13.859 Q 26.05 15.034 27.1 15.884 Z M 20 28.434 Q 20.15 28.834 20.2 29.384 L 20.4 29.084 Q 20.15 30.034 20.4 30.909 Q 20.65 31.784 21.1 32.434 Q 21.5 33.134 22.2 33.709 Q 22.9 34.284 23.9 34.384 A 3.251 3.251 0 0 1 23.069 34.488 A 4.54 4.54 0 0 1 21.775 34.284 Q 20.6 33.934 20.05 33.134 Q 19.75 32.634 19.675 32.034 A 4.142 4.142 0 0 1 19.643 31.52 A 4.164 4.164 0 0 1 19.7 30.834 A 1.414 1.414 0 0 1 18.937 31.026 A 2.504 2.504 0 0 1 18.65 31.009 Q 18 30.934 17.6 30.734 A 1.309 1.309 0 0 0 17.73 30.741 A 0.944 0.944 0 0 0 18.425 30.459 L 19.05 29.834 Q 19.35 29.584 19.675 29.259 Q 20 28.934 20 28.434 Z M 119.7 38.134 Q 119.65 39.484 118.825 40.759 Q 118 42.034 116.75 42.484 A 3.719 3.719 0 0 1 115.481 42.703 A 4.743 4.743 0 0 1 114.025 42.459 Q 112.55 41.984 111.7 40.934 Q 112.85 41.634 114.1 41.684 Q 115.35 41.734 116.35 41.384 Q 117.35 41.034 118.275 40.209 Q 119.2 39.384 119.7 38.134 Z M 217.55 38.134 Q 217.5 39.484 216.675 40.759 Q 215.85 42.034 214.6 42.484 A 3.719 3.719 0 0 1 213.331 42.703 A 4.743 4.743 0 0 1 211.875 42.459 Q 210.4 41.984 209.55 40.934 Q 210.7 41.634 211.95 41.684 Q 213.2 41.734 214.2 41.384 Q 215.2 41.034 216.125 40.209 Q 217.05 39.384 217.55 38.134 Z M 104.75 37.034 Q 103.65 36.334 102.975 34.934 A 4.566 4.566 0 0 1 102.482 32.944 A 3.751 3.751 0 0 1 102.55 32.234 Q 102.85 30.934 104.025 29.909 Q 105.2 28.884 106.5 28.734 Q 105.35 29.334 104.65 30.384 Q 103.95 31.434 103.75 32.484 A 4.965 4.965 0 0 0 103.618 33.638 A 6.205 6.205 0 0 0 103.725 34.759 Q 103.95 35.984 104.75 37.034 Z M 154.2 44.234 Q 153.75 45.484 152.525 46.259 Q 151.3 47.034 149.95 47.034 Q 148.6 47.034 147.375 46.259 Q 146.15 45.484 145.7 44.234 Q 146.55 45.234 147.725 45.884 Q 148.9 46.534 149.95 46.534 Q 151 46.534 152.175 45.884 Q 153.35 45.234 154.2 44.234 Z M 160.1 42.509 A 4.756 4.756 0 0 0 161.95 40.484 Q 161 41.434 159.825 41.759 Q 158.65 42.084 157.6 41.984 Q 156.55 41.884 155.45 41.334 Q 154.35 40.784 153.6 39.684 Q 153.95 40.984 155.05 42.034 Q 156.15 43.084 157.5 43.184 A 3.487 3.487 0 0 0 157.9 43.207 A 4.078 4.078 0 0 0 160.1 42.509 Z M 63.65 7.234 Q 64.7 6.434 66.2 6.234 A 4.912 4.912 0 0 1 66.849 6.19 A 3.772 3.772 0 0 1 68.85 6.734 Q 69.95 7.434 70.5 8.859 Q 71.05 10.284 70.8 11.534 Q 70.6 10.234 69.85 9.284 Q 69.1 8.334 68.2 7.784 Q 67.3 7.234 66.1 7.034 A 4.892 4.892 0 0 0 65.294 6.967 A 5.374 5.374 0 0 0 63.65 7.234 Z M 17.6 31.534 Q 18.8 31.934 19.725 33.134 Q 20.65 34.334 20.65 35.584 Q 20.65 36.884 19.725 38.059 Q 18.8 39.234 17.6 39.684 Q 18.6 38.834 19.025 37.734 Q 19.45 36.634 19.45 35.584 Q 19.45 34.584 19.025 33.459 Q 18.6 32.334 17.6 31.534 Z M 196.8 6.534 Q 198 6.934 198.975 8.059 Q 199.95 9.184 200 10.484 Q 200.05 11.734 199.2 12.959 Q 198.35 14.184 197.15 14.684 Q 198.1 13.834 198.475 12.684 A 6.18 6.18 0 0 0 198.806 10.771 A 4.753 4.753 0 0 0 198.8 10.534 Q 198.75 9.484 198.275 8.409 Q 197.8 7.334 196.8 6.534 Z M 286.85 6.534 Q 288.05 6.934 289.025 8.059 Q 290 9.184 290.05 10.484 Q 290.1 11.734 289.25 12.959 Q 288.4 14.184 287.2 14.684 Q 288.15 13.834 288.525 12.684 A 6.18 6.18 0 0 0 288.856 10.771 A 4.753 4.753 0 0 0 288.85 10.534 Q 288.8 9.484 288.325 8.409 Q 287.85 7.334 286.85 6.534 Z M 84.7 6.484 Q 85.45 5.484 86.8 4.959 Q 88.15 4.434 89.35 4.834 Q 90.55 5.184 91.375 6.409 Q 92.2 7.634 92.25 8.884 Q 91.75 7.734 90.85 7.009 Q 89.95 6.284 89 5.984 Q 88.05 5.684 86.9 5.759 Q 85.75 5.834 84.7 6.484 Z M 25.65 16.884 L 25.75 17.034 Q 26.45 16.734 27.1 16.684 Q 26.4 16.984 25.95 17.684 A 3.34 3.34 0 0 1 26.014 18.341 A 3.892 3.892 0 0 1 25.9 19.259 A 5.335 5.335 0 0 1 25.764 19.729 A 4.111 4.111 0 0 1 25.3 20.684 Q 25.35 21.084 25.6 21.484 Q 24.95 20.984 24.525 20.084 Q 24.1 19.184 24.35 18.434 Q 24.45 18.084 24.75 17.734 L 24.65 17.534 Q 24.25 16.884 23.6 16.284 Q 22.95 15.684 22 15.534 Q 22.95 15.384 24.05 15.734 Q 25.15 16.084 25.65 16.884 Z M 246.95 17.734 Q 247.1 16.534 248 15.409 Q 248.9 14.284 250.1 13.984 Q 251.3 13.734 252.6 14.334 Q 253.9 14.934 254.55 15.984 Q 253.55 15.234 252.425 15.084 A 6.198 6.198 0 0 0 251.606 15.028 A 4.917 4.917 0 0 0 250.35 15.184 Q 249.4 15.384 248.45 16.009 Q 247.5 16.634 246.95 17.734 Z M 53.95 40.684 Q 53.2 41.634 51.825 42.109 A 4.367 4.367 0 0 1 50.398 42.367 A 3.32 3.32 0 0 1 49.3 42.184 Q 48.15 41.734 47.4 40.534 Q 46.65 39.334 46.6 38.084 Q 47.05 39.234 47.925 39.959 Q 48.8 40.684 49.7 41.034 Q 50.65 41.334 51.775 41.334 Q 52.9 41.334 53.95 40.684 Z M 18.364 8.201 A 3.98 3.98 0 0 0 17.55 8.284 Q 18.75 8.484 19.65 9.184 Q 20.55 9.884 21.05 10.684 Q 21.55 11.534 21.75 12.634 A 4.5 4.5 0 0 1 21.823 13.441 A 4.939 4.939 0 0 1 21.6 14.884 Q 22.35 13.934 22.525 12.509 A 4.804 4.804 0 0 0 22.562 11.924 A 3.3 3.3 0 0 0 22.05 10.084 Q 21.4 9.034 20.075 8.534 A 4.834 4.834 0 0 0 18.364 8.201 Z M 179.9 44.734 Q 179.25 45.734 178 46.209 A 4.475 4.475 0 0 1 176.405 46.52 A 3.779 3.779 0 0 1 175.6 46.434 Q 174.4 46.184 173.45 45.234 Q 172.5 44.284 172.35 43.084 Q 172.9 44.184 173.825 44.959 Q 174.75 45.734 175.7 45.934 A 3.646 3.646 0 0 0 176.453 46.01 A 4.959 4.959 0 0 0 177.8 45.809 Q 178.95 45.484 179.9 44.734 Z M 269.95 44.734 Q 269.3 45.734 268.05 46.209 A 4.475 4.475 0 0 1 266.455 46.52 A 3.779 3.779 0 0 1 265.65 46.434 Q 264.45 46.184 263.5 45.234 Q 262.55 44.284 262.4 43.084 Q 262.95 44.184 263.875 44.959 Q 264.8 45.734 265.75 45.934 A 3.646 3.646 0 0 0 266.503 46.01 A 4.959 4.959 0 0 0 267.85 45.809 Q 269 45.484 269.95 44.734 Z M 27.9 6.984 Q 28.3 5.834 29.4 4.959 A 4.694 4.694 0 0 1 29.8 4.673 A 3.572 3.572 0 0 1 31.75 4.084 Q 32.95 4.084 34.05 4.959 Q 35.15 5.834 35.55 6.984 Q 34.8 6.034 33.75 5.659 Q 32.7 5.284 31.75 5.284 Q 30.75 5.284 29.7 5.659 Q 28.65 6.034 27.9 6.984 Z M 28.058 40.932 A 4.391 4.391 0 0 0 30.05 40.484 Q 28.85 40.634 27.825 40.184 Q 26.8 39.734 26.1 39.084 Q 25.35 38.434 24.875 37.434 A 4.54 4.54 0 0 1 24.445 35.461 A 5.447 5.447 0 0 1 24.45 35.234 Q 24 36.334 24.175 37.734 Q 24.35 39.134 25.25 39.934 Q 26.15 40.784 27.55 40.909 A 5.714 5.714 0 0 0 28.058 40.932 Z M 7.35 14.784 Q 6.25 14.334 5.4 13.209 Q 4.55 12.084 4.55 10.884 Q 4.6 9.684 5.5 8.609 Q 6.4 7.534 7.5 7.134 Q 6.6 7.884 6.175 8.909 Q 5.75 9.934 5.75 10.934 Q 5.75 11.884 6.1 12.934 Q 6.45 13.984 7.35 14.784 Z M 45.642 37.647 A 3.559 3.559 0 0 0 45.95 37.634 Q 44.8 37.284 44.05 36.509 Q 43.3 35.734 42.9 34.884 Q 42.5 33.984 42.425 32.884 Q 42.35 31.784 42.85 30.734 Q 42 31.584 41.65 32.934 Q 41.3 34.284 41.8 35.334 Q 42.3 36.434 43.55 37.084 A 4.528 4.528 0 0 0 45.642 37.647 Z M 37.35 25.134 Q 38.45 25.534 39.325 26.634 Q 40.2 27.734 40.2 28.934 Q 40.2 30.134 39.325 31.209 Q 38.45 32.284 37.35 32.684 Q 38.25 31.934 38.625 30.909 Q 39 29.884 39 28.934 Q 39 27.984 38.625 26.934 Q 38.25 25.884 37.35 25.134 Z M 47.563 26.588 A 4.171 4.171 0 0 0 49.75 26.034 A 4.373 4.373 0 0 1 49 26.101 A 3.735 3.735 0 0 1 47.6 25.834 Q 46.6 25.434 45.85 24.834 Q 45.15 24.234 44.625 23.284 A 3.949 3.949 0 0 1 44.146 21.341 A 4.968 4.968 0 0 1 44.15 21.134 A 3.996 3.996 0 0 0 43.861 22.662 A 5.294 5.294 0 0 0 43.95 23.609 Q 44.2 24.984 45.1 25.734 Q 45.95 26.534 47.35 26.584 A 5.969 5.969 0 0 0 47.563 26.588 Z M 236.93 40.497 A 3.857 3.857 0 0 0 237.25 40.484 Q 236.1 40.134 235.375 39.359 Q 234.65 38.584 234.25 37.734 Q 233.9 36.884 233.825 35.809 Q 233.75 34.734 234.25 33.734 Q 233.4 34.534 233.05 35.859 Q 232.7 37.184 233.15 38.234 Q 233.6 39.284 234.825 39.934 A 4.462 4.462 0 0 0 236.93 40.497 Z M 43.85 20.384 Q 42.75 19.934 41.975 18.809 A 3.736 3.736 0 0 1 41.247 16.673 A 3.206 3.206 0 0 1 41.25 16.534 Q 41.35 15.384 42.275 14.359 Q 43.2 13.334 44.3 13.034 Q 43.35 13.734 42.925 14.709 Q 42.5 15.684 42.45 16.634 A 4.681 4.681 0 0 0 42.443 16.894 A 5.934 5.934 0 0 0 42.7 18.559 Q 43 19.584 43.85 20.384 Z M 92.25 13.434 Q 93 12.534 94.3 12.109 Q 95.6 11.684 96.65 12.084 Q 97.75 12.484 98.425 13.659 Q 99.1 14.834 99.1 15.984 Q 98.7 14.884 97.9 14.209 Q 97.1 13.534 96.25 13.184 Q 95.35 12.884 94.3 12.859 Q 93.25 12.834 92.25 13.434 Z M 153.6 38.884 Q 152.5 38.484 151.65 37.434 Q 150.8 36.384 150.8 35.234 Q 150.8 34.084 151.65 33.034 Q 152.5 31.984 153.6 31.584 Q 152.7 32.334 152.35 33.334 Q 152 34.334 152 35.234 Q 152 36.134 152.35 37.134 Q 152.7 38.134 153.6 38.884 Z M 247.6 25.084 Q 248.45 25.834 248.85 27.109 Q 249.25 28.384 248.85 29.434 Q 248.4 30.484 247.25 31.109 Q 246.1 31.734 244.95 31.734 Q 246 31.384 246.7 30.609 Q 247.4 29.834 247.7 28.984 Q 248.05 28.134 248.1 27.109 A 3.502 3.502 0 0 0 248.104 26.938 A 3.811 3.811 0 0 0 247.6 25.084 Z M 244.95 39.284 Q 244.75 40.384 243.9 41.384 Q 243.05 42.384 241.95 42.534 A 2.903 2.903 0 0 1 241.43 42.581 A 3.5 3.5 0 0 1 239.7 42.084 Q 238.55 41.434 238 40.484 Q 238.85 41.184 239.85 41.359 A 6.075 6.075 0 0 0 240.898 41.453 A 5.175 5.175 0 0 0 241.75 41.384 Q 242.6 41.234 243.5 40.734 Q 244.4 40.234 244.95 39.284 Z M 147.1 28.634 Q 148.1 28.984 148.95 29.984 Q 149.8 30.984 149.8 32.084 Q 149.8 33.184 148.95 34.184 Q 148.1 35.184 147.1 35.534 Q 147.95 34.834 148.275 33.884 Q 148.6 32.934 148.6 32.084 Q 148.6 31.184 148.275 30.259 Q 147.95 29.334 147.1 28.634 Z M 82.3 13.234 Q 81.4 12.634 80.825 11.459 Q 80.25 10.284 80.5 9.234 Q 80.75 8.184 81.775 7.409 Q 82.8 6.634 83.9 6.484 Q 82.9 6.984 82.375 7.834 Q 81.85 8.684 81.65 9.534 A 4.756 4.756 0 0 0 81.517 10.69 A 6.48 6.48 0 0 0 81.55 11.334 Q 81.65 12.334 82.3 13.234 Z M 234.246 18.421 A 3.592 3.592 0 0 0 234.25 18.584 Q 234.6 17.534 235.35 16.884 Q 236.1 16.234 236.9 15.934 Q 237.7 15.584 238.675 15.534 A 3.457 3.457 0 0 1 238.852 15.53 A 3.717 3.717 0 0 1 240.6 15.984 A 4.235 4.235 0 0 0 238.675 14.784 A 3.552 3.552 0 0 0 237.572 14.596 A 2.703 2.703 0 0 0 236.45 14.834 Q 235.45 15.234 234.825 16.359 A 4.221 4.221 0 0 0 234.246 18.421 Z M 7.35 29.134 Q 6.35 28.734 5.525 27.759 Q 4.7 26.784 4.7 25.734 Q 4.7 24.684 5.525 23.684 Q 6.35 22.684 7.35 22.334 Q 6.55 23.034 6.225 23.959 Q 5.9 24.884 5.9 25.734 Q 5.9 26.584 6.225 27.509 Q 6.55 28.434 7.35 29.134 Z M 83.1 35.234 Q 82.1 34.984 81.175 34.109 Q 80.25 33.234 80.1 32.184 Q 79.95 31.134 80.65 30.059 Q 81.35 28.984 82.3 28.534 Q 81.55 29.284 81.375 30.234 A 6.449 6.449 0 0 0 81.264 31.403 A 5.4 5.4 0 0 0 81.3 32.034 Q 81.4 32.884 81.825 33.759 Q 82.25 34.634 83.1 35.234 Z M 255.15 24.984 Q 254.8 25.984 253.825 26.784 Q 252.85 27.584 251.8 27.584 Q 250.75 27.584 249.775 26.784 Q 248.8 25.984 248.45 24.984 Q 249.1 25.784 250.025 26.084 Q 250.95 26.384 251.8 26.384 Q 252.65 26.384 253.55 26.084 Q 254.45 25.784 255.15 24.984 Z M 110.9 40.834 Q 110.15 41.534 108.95 41.784 A 3.76 3.76 0 0 1 108.183 41.867 A 2.699 2.699 0 0 1 106.85 41.534 Q 105.95 41.034 105.5 39.884 Q 105.05 38.734 105.2 37.734 Q 105.4 38.734 106.05 39.409 Q 106.7 40.084 107.45 40.484 Q 108.15 40.884 109.05 41.059 A 2.888 2.888 0 0 0 109.602 41.112 A 3.328 3.328 0 0 0 110.9 40.834 Z M 208.75 40.834 Q 208 41.534 206.8 41.784 A 3.76 3.76 0 0 1 206.033 41.867 A 2.699 2.699 0 0 1 204.7 41.534 Q 203.8 41.034 203.35 39.884 Q 202.9 38.734 203.05 37.734 Q 203.25 38.734 203.9 39.409 Q 204.55 40.084 205.3 40.484 Q 206 40.884 206.9 41.059 A 2.888 2.888 0 0 0 207.452 41.112 A 3.328 3.328 0 0 0 208.75 40.834 Z M 153.75 15.584 Q 154.3 14.734 155.35 14.109 A 3.044 3.044 0 0 1 156.912 13.636 A 2.481 2.481 0 0 1 157.4 13.684 Q 158.4 13.884 159.175 14.834 Q 159.95 15.784 160.15 16.784 Q 159.6 15.884 158.8 15.459 Q 158 15.034 157.2 14.884 Q 156.4 14.734 155.475 14.834 Q 154.55 14.934 153.75 15.584 Z M 77.6 23.234 Q 76.6 22.984 75.725 22.109 Q 74.85 21.234 74.75 20.234 A 2.435 2.435 0 0 1 74.738 19.992 A 2.983 2.983 0 0 1 75.375 18.234 Q 76.1 17.234 77 16.784 Q 76.3 17.484 76.1 18.409 Q 75.9 19.334 75.95 20.134 Q 76.05 20.934 76.4 21.784 Q 76.75 22.634 77.6 23.234 Z M 287.2 35.084 Q 287.8 35.884 287.95 37.109 A 4.179 4.179 0 0 1 287.982 37.617 A 2.821 2.821 0 0 1 287.55 39.184 Q 287 40.034 285.825 40.384 A 4.591 4.591 0 0 1 284.514 40.588 A 3.548 3.548 0 0 1 283.65 40.484 Q 284.65 40.384 285.375 39.784 Q 286.1 39.184 286.55 38.534 Q 287 37.834 287.25 36.959 A 2.975 2.975 0 0 0 287.364 36.138 A 3.661 3.661 0 0 0 287.2 35.084 Z M 262.819 39.588 A 3.251 3.251 0 0 0 263.65 39.484 Q 262.65 39.384 261.925 38.809 Q 261.2 38.234 260.75 37.534 Q 260.3 36.834 260.05 35.959 Q 259.8 35.084 260.05 34.084 Q 259.45 34.934 259.325 36.134 A 4.174 4.174 0 0 0 259.302 36.567 A 2.911 2.911 0 0 0 259.75 38.184 Q 260.35 39.034 261.525 39.384 A 4.54 4.54 0 0 0 262.819 39.588 Z M 37.35 33.484 Q 38.3 33.834 39.075 34.759 Q 39.85 35.684 39.85 36.684 Q 39.85 37.684 39.075 38.609 Q 38.3 39.534 37.35 39.884 Q 38.1 39.234 38.375 38.359 Q 38.65 37.484 38.65 36.684 Q 38.65 35.884 38.375 35.009 Q 38.1 34.134 37.35 33.484 Z M 121.4 15.684 Q 122.05 14.934 123.175 14.534 A 3.665 3.665 0 0 1 124.404 14.306 A 2.794 2.794 0 0 1 125.25 14.434 Q 126.2 14.784 126.775 15.859 Q 127.35 16.934 127.35 17.934 Q 127 16.984 126.275 16.434 Q 125.55 15.884 124.8 15.584 Q 124.05 15.284 123.15 15.234 A 2.942 2.942 0 0 0 122.987 15.23 A 3.092 3.092 0 0 0 121.4 15.684 Z M 219.25 15.684 Q 219.9 14.934 221.025 14.534 A 3.665 3.665 0 0 1 222.254 14.306 A 2.794 2.794 0 0 1 223.1 14.434 Q 224.05 14.784 224.625 15.859 Q 225.2 16.934 225.2 17.934 Q 224.85 16.984 224.125 16.434 Q 223.4 15.884 222.65 15.584 Q 221.9 15.284 221 15.234 A 2.942 2.942 0 0 0 220.837 15.23 A 3.092 3.092 0 0 0 219.25 15.684 Z M 234.25 25.734 Q 233.3 25.384 232.525 24.484 Q 231.75 23.584 231.75 22.534 Q 231.75 21.534 232.525 20.634 Q 233.3 19.734 234.25 19.384 Q 233.5 20.034 233.225 20.884 Q 232.95 21.734 232.95 22.534 Q 232.95 23.384 233.225 24.234 Q 233.5 25.084 234.25 25.734 Z M 73.8 32.084 Q 74.4 32.884 74.55 34.084 A 4.296 4.296 0 0 1 74.585 34.617 A 2.712 2.712 0 0 1 74.2 36.084 Q 73.65 36.934 72.5 37.284 A 4.428 4.428 0 0 1 71.209 37.488 A 3.53 3.53 0 0 1 70.35 37.384 Q 71.35 37.284 72.05 36.709 Q 72.75 36.134 73.15 35.434 Q 73.6 34.784 73.85 33.909 A 2.938 2.938 0 0 0 73.964 33.098 A 3.357 3.357 0 0 0 73.8 32.084 Z M 186.904 38.693 A 3.025 3.025 0 0 0 186.9 38.534 Q 186.6 39.434 185.9 40.009 Q 185.2 40.584 184.5 40.834 Q 183.75 41.134 182.875 41.234 A 2.561 2.561 0 0 1 182.584 41.251 A 2.801 2.801 0 0 1 181.15 40.834 Q 181.8 41.584 182.925 41.959 A 3.492 3.492 0 0 0 184.029 42.153 A 2.52 2.52 0 0 0 184.95 41.984 Q 185.85 41.584 186.4 40.534 A 3.971 3.971 0 0 0 186.904 38.693 Z M 276.954 38.693 A 3.025 3.025 0 0 0 276.95 38.534 Q 276.65 39.434 275.95 40.009 Q 275.25 40.584 274.55 40.834 Q 273.8 41.134 272.925 41.234 A 2.561 2.561 0 0 1 272.634 41.251 A 2.801 2.801 0 0 1 271.2 40.834 Q 271.85 41.584 272.975 41.959 A 3.492 3.492 0 0 0 274.079 42.153 A 2.52 2.52 0 0 0 275 41.984 Q 275.9 41.584 276.45 40.534 A 3.971 3.971 0 0 0 276.954 38.693 Z M 139.6 15.984 Q 139.9 15.084 140.8 14.309 Q 141.7 13.534 142.65 13.534 Q 143.65 13.534 144.525 14.309 Q 145.4 15.084 145.75 15.984 Q 145.15 15.234 144.3 14.984 Q 143.45 14.734 142.65 14.734 Q 141.9 14.734 141.05 14.984 Q 140.2 15.234 139.6 15.984 Z M 92.25 26.734 Q 93.2 26.784 94.2 27.384 Q 95.2 27.984 95.5 28.934 Q 95.8 29.834 95.35 30.909 Q 94.9 31.984 94.15 32.584 A 2.96 2.96 0 0 0 94.626 30.992 A 2.912 2.912 0 0 0 94.625 30.909 Q 94.6 30.034 94.4 29.284 Q 94.15 28.534 93.65 27.834 Q 93.15 27.134 92.25 26.734 Z M 178.85 42.384 A 3.778 3.778 0 0 0 180.3 40.934 Q 179.6 41.584 178.725 41.684 Q 177.85 41.784 177.1 41.634 Q 176.35 41.484 175.575 41.109 Q 174.8 40.734 174.3 39.884 Q 174.5 40.834 175.225 41.734 Q 175.95 42.634 176.9 42.834 Q 177.85 42.984 178.85 42.384 Z M 270.35 40.934 Q 269.9 41.784 268.9 42.384 Q 267.9 42.984 266.95 42.834 Q 266 42.634 265.275 41.734 Q 264.55 40.834 264.35 39.884 Q 264.85 40.734 265.625 41.109 Q 266.4 41.484 267.15 41.634 Q 267.9 41.784 268.775 41.684 Q 269.65 41.584 270.35 40.934 Z M 130.955 37.801 A 3.693 3.693 0 0 0 130.65 36.284 A 3.763 3.763 0 0 1 130.655 36.482 A 2.993 2.993 0 0 1 130.275 37.984 Q 129.85 38.734 129.3 39.284 Q 128.75 39.784 127.975 40.184 Q 127.2 40.584 126.25 40.484 A 4.38 4.38 0 0 0 128.048 40.84 A 5.812 5.812 0 0 0 128.3 40.834 Q 129.45 40.784 130.15 40.134 Q 130.8 39.484 130.925 38.334 A 4.937 4.937 0 0 0 130.955 37.801 Z M 228.805 37.801 A 3.693 3.693 0 0 0 228.5 36.284 A 3.763 3.763 0 0 1 228.505 36.482 A 2.993 2.993 0 0 1 228.125 37.984 Q 227.7 38.734 227.15 39.284 Q 226.6 39.784 225.825 40.184 Q 225.05 40.584 224.1 40.484 A 4.38 4.38 0 0 0 225.898 40.84 A 5.812 5.812 0 0 0 226.15 40.834 Q 227.3 40.784 228 40.134 Q 228.65 39.484 228.775 38.334 A 4.937 4.937 0 0 0 228.805 37.801 Z M 117.35 34.984 Q 117.15 34.884 117 34.784 Q 116.8 34.934 116.55 35.084 Q 116.75 34.884 116.85 34.634 Q 116.25 34.234 115.85 33.584 A 2.132 2.132 0 0 1 115.494 32.468 A 1.612 1.612 0 0 1 115.5 32.334 Q 115.55 31.584 116.3 30.934 Q 116.1 30.684 115.8 30.534 Q 116.15 30.584 116.5 30.734 Q 117.1 30.234 117.8 30.034 Q 117.25 30.384 117 31.034 Q 117.45 31.284 117.775 31.659 Q 118.1 32.034 118.15 32.484 Q 118.25 33.034 117.925 33.634 Q 117.6 34.234 117.1 34.684 Q 117.2 34.834 117.35 34.984 Z M 215.2 34.984 Q 215 34.884 214.85 34.784 Q 214.65 34.934 214.4 35.084 Q 214.6 34.884 214.7 34.634 Q 214.1 34.234 213.7 33.584 A 2.132 2.132 0 0 1 213.344 32.468 A 1.612 1.612 0 0 1 213.35 32.334 Q 213.4 31.584 214.15 30.934 Q 213.95 30.684 213.65 30.534 Q 214 30.584 214.35 30.734 Q 214.95 30.234 215.65 30.034 Q 215.1 30.384 214.85 31.034 Q 215.3 31.284 215.625 31.659 Q 215.95 32.034 216 32.484 Q 216.1 33.034 215.775 33.634 Q 215.45 34.234 214.95 34.684 Q 215.05 34.834 215.2 34.984 Z M 174.25 16.684 Q 174.4 15.734 175.1 14.834 Q 175.8 13.934 176.75 13.734 A 2.39 2.39 0 0 1 177.244 13.682 A 2.91 2.91 0 0 1 178.7 14.109 Q 179.7 14.684 180.2 15.534 Q 179.45 14.934 178.6 14.859 Q 177.75 14.784 177 14.934 Q 176.25 15.084 175.5 15.484 A 3.307 3.307 0 0 0 174.25 16.684 Z M 264.3 16.684 Q 264.45 15.734 265.15 14.834 Q 265.85 13.934 266.8 13.734 A 2.39 2.39 0 0 1 267.294 13.682 A 2.91 2.91 0 0 1 268.75 14.109 Q 269.75 14.684 270.25 15.534 Q 269.5 14.934 268.65 14.859 Q 267.8 14.784 267.05 14.934 Q 266.3 15.084 265.55 15.484 A 3.307 3.307 0 0 0 264.3 16.684 Z M 69.705 38.066 A 3.459 3.459 0 0 0 69.7 37.884 Q 69.45 38.784 68.8 39.334 Q 68.15 39.884 67.45 40.184 Q 66.75 40.484 65.9 40.609 A 2.537 2.537 0 0 1 65.53 40.636 A 2.821 2.821 0 0 1 64.2 40.284 Q 64.85 40.984 65.95 41.334 A 3.21 3.21 0 0 0 66.922 41.497 A 2.267 2.267 0 0 0 67.9 41.284 Q 68.8 40.934 69.275 39.884 A 4.41 4.41 0 0 0 69.705 38.066 Z M 164.35 34.684 Q 165.1 35.234 165.6 36.259 A 3.03 3.03 0 0 1 165.933 37.592 A 2.511 2.511 0 0 1 165.85 38.234 Q 165.6 39.134 164.65 39.759 Q 163.7 40.384 162.75 40.484 Q 163.6 40.084 164.05 39.359 Q 164.5 38.634 164.7 37.884 Q 164.9 37.184 164.9 36.334 Q 164.9 35.484 164.35 34.684 Z M 7.35 21.534 Q 6.45 21.234 5.7 20.359 Q 4.95 19.484 4.95 18.534 Q 4.95 17.584 5.7 16.734 Q 6.45 15.884 7.35 15.584 Q 6.65 16.184 6.4 16.984 Q 6.15 17.784 6.15 18.534 A 5.43 5.43 0 0 0 6.4 20.109 Q 6.65 20.934 7.35 21.534 Z M 244.95 32.534 Q 245.85 32.834 246.6 33.709 Q 247.35 34.584 247.35 35.484 Q 247.35 36.434 246.6 37.309 Q 245.85 38.184 244.95 38.484 Q 245.65 37.884 245.9 37.059 A 5.43 5.43 0 0 0 246.15 35.484 Q 246.15 34.734 245.9 33.934 Q 245.65 33.134 244.95 32.534 Z M 36.75 40.484 Q 36.45 41.384 35.575 42.134 Q 34.7 42.884 33.8 42.884 Q 32.85 42.884 32 42.134 Q 31.15 41.384 30.85 40.484 Q 31.4 41.184 32.225 41.434 Q 33.05 41.684 33.8 41.684 Q 34.55 41.684 35.35 41.434 Q 36.15 41.184 36.75 40.484 Z M 142.15 40.484 Q 141.65 41.284 140.625 41.809 A 2.921 2.921 0 0 1 139.294 42.165 A 2.208 2.208 0 0 1 138.7 42.084 Q 137.8 41.884 137.15 40.959 Q 136.5 40.034 136.4 39.084 Q 136.8 39.934 137.525 40.334 Q 138.25 40.734 139 40.934 Q 139.7 41.084 140.55 41.059 Q 141.4 41.034 142.15 40.484 Z M 88.1 39.684 Q 87.3 40.134 86.15 40.184 A 4.341 4.341 0 0 1 85.961 40.188 A 2.61 2.61 0 0 1 84.3 39.684 Q 83.55 39.084 83.35 37.959 Q 83.15 36.834 83.45 35.984 Q 83.5 36.884 83.975 37.584 Q 84.45 38.284 85.05 38.734 Q 85.6 39.184 86.375 39.509 A 2.924 2.924 0 0 0 87.517 39.731 A 3.734 3.734 0 0 0 88.1 39.684 Z M 147.437 37.961 A 3.776 3.776 0 0 0 147.1 36.334 A 3.046 3.046 0 0 1 147.119 36.671 A 2.502 2.502 0 0 1 146.775 37.959 Q 146.35 38.684 145.85 39.234 Q 145.3 39.734 144.575 40.159 A 2.502 2.502 0 0 1 143.287 40.503 A 3.046 3.046 0 0 1 142.95 40.484 A 3.776 3.776 0 0 0 144.577 40.821 A 5.238 5.238 0 0 0 144.925 40.809 Q 146.05 40.734 146.7 40.084 Q 147.35 39.434 147.425 38.309 A 5.238 5.238 0 0 0 147.437 37.961 Z M 261.099 17.564 A 11.942 11.942 0 0 0 259.435 15.234 A 9.228 9.228 0 0 0 257.325 16.384 A 5.747 5.747 0 0 0 256.193 17.391 A 4.617 4.617 0 0 1 257.65 18.609 A 3.356 3.356 0 0 1 258.422 20.119 A 4.309 4.309 0 0 1 258.55 19.834 Q 259.2 18.534 260.7 17.759 A 5.37 5.37 0 0 1 261.099 17.564 Z M 136.4 21.184 Q 135.75 20.534 135.425 19.484 A 3.046 3.046 0 0 1 135.279 18.583 A 2.317 2.317 0 0 1 135.5 17.584 Q 135.85 16.784 136.875 16.359 Q 137.9 15.934 138.8 15.984 Q 137.9 16.234 137.4 16.834 Q 136.9 17.434 136.6 18.084 Q 136.3 18.784 136.15 19.559 A 2.249 2.249 0 0 0 136.109 19.987 A 2.804 2.804 0 0 0 136.4 21.184 Z M 146.35 16.584 Q 146.55 15.734 147.3 14.909 Q 148.05 14.084 148.95 14.034 A 2.013 2.013 0 0 1 149.185 14.02 A 2.66 2.66 0 0 1 150.7 14.559 Q 151.6 15.184 151.95 16.034 Q 151.35 15.384 150.55 15.259 A 7.079 7.079 0 0 0 149.458 15.17 A 5.728 5.728 0 0 0 149.05 15.184 Q 148.35 15.284 147.6 15.559 Q 146.85 15.834 146.35 16.584 Z M 192.8 40.484 Q 192.3 41.184 191.325 41.659 A 2.794 2.794 0 0 1 190.101 41.97 A 2.119 2.119 0 0 1 189.5 41.884 Q 188.65 41.634 188.075 40.709 Q 187.5 39.784 187.45 38.934 Q 187.8 39.734 188.475 40.134 Q 189.15 40.534 189.8 40.734 Q 190.5 40.934 191.275 40.959 A 2.288 2.288 0 0 0 191.349 40.96 A 2.592 2.592 0 0 0 192.8 40.484 Z M 282.85 40.484 Q 282.35 41.184 281.375 41.659 A 2.794 2.794 0 0 1 280.151 41.97 A 2.119 2.119 0 0 1 279.55 41.884 Q 278.7 41.634 278.125 40.709 Q 277.55 39.784 277.5 38.934 Q 277.85 39.734 278.525 40.134 Q 279.2 40.534 279.85 40.734 Q 280.55 40.934 281.325 40.959 A 2.288 2.288 0 0 0 281.399 40.96 A 2.592 2.592 0 0 0 282.85 40.484 Z M 125.5 40.484 Q 124.9 41.134 123.875 41.484 A 3.221 3.221 0 0 1 122.836 41.673 A 2.221 2.221 0 0 1 122.05 41.534 Q 121.25 41.184 120.8 40.209 Q 120.35 39.234 120.35 38.384 Q 120.65 39.184 121.25 39.659 Q 121.85 40.134 122.5 40.384 Q 123.15 40.684 123.925 40.784 Q 124.7 40.884 125.5 40.484 Z M 223.35 40.484 Q 222.75 41.134 221.725 41.484 A 3.221 3.221 0 0 1 220.686 41.673 A 2.221 2.221 0 0 1 219.9 41.534 Q 219.1 41.184 218.65 40.209 Q 218.2 39.234 218.2 38.384 Q 218.5 39.184 219.1 39.659 Q 219.7 40.134 220.35 40.384 Q 221 40.684 221.775 40.784 Q 222.55 40.884 223.35 40.484 Z M 241.4 15.984 Q 242 15.384 243 15.059 A 2.934 2.934 0 0 1 243.905 14.903 A 1.973 1.973 0 0 1 244.75 15.084 Q 245.55 15.434 245.95 16.384 A 4.149 4.149 0 0 1 246.306 17.994 A 3.237 3.237 0 0 1 246.3 18.184 Q 246.05 17.384 245.475 16.909 Q 244.9 16.434 244.25 16.184 Q 243.65 15.884 242.9 15.759 A 2.397 2.397 0 0 0 242.505 15.726 A 2.594 2.594 0 0 0 241.4 15.984 Z M 77.35 16.034 Q 77.35 15.184 77.8 14.234 Q 78.25 13.284 79 12.984 A 2.191 2.191 0 0 1 79.776 12.846 A 2.958 2.958 0 0 1 80.775 13.034 Q 81.75 13.384 82.3 13.984 Q 81.55 13.634 80.825 13.734 Q 80.1 13.834 79.45 14.084 Q 78.85 14.334 78.225 14.784 Q 77.6 15.234 77.35 16.034 Z M 60.35 16.834 A 6.588 6.588 0 0 0 58.887 16.678 A 8.556 8.556 0 0 0 57.925 16.734 Q 56.6 16.884 55.4 17.634 Q 56.1 18.084 56.875 18.184 A 7.816 7.816 0 0 0 57.875 18.251 A 6.666 6.666 0 0 0 58.35 18.234 Q 59.05 18.134 59.75 17.859 Q 60.45 17.584 61 17.084 Q 60.7 16.934 60.35 16.834 Z M 100.7 26.734 Q 101.35 26.634 102 26.909 Q 102.65 27.184 102.95 27.734 A 1.753 1.753 0 0 1 103.222 28.696 A 2.294 2.294 0 0 1 103.2 29.009 Q 103.1 29.734 102.7 30.184 A 2.094 2.094 0 0 0 102.892 29.308 A 2.209 2.209 0 0 0 102.875 29.034 Q 102.8 28.434 102.55 27.984 Q 102.3 27.584 101.825 27.209 Q 101.35 26.834 100.7 26.734 Z M 107.1 19.234 Q 106.7 19.584 106.325 20.259 A 1.715 1.715 0 0 0 106.08 21.086 A 1.155 1.155 0 0 0 106.15 21.484 Q 106.35 21.984 107.05 22.284 Q 107.75 22.584 108.3 22.584 Q 107.8 22.384 107.625 21.934 Q 107.45 21.484 107.25 21.084 Q 107.1 20.634 106.975 20.184 A 1.136 1.136 0 0 1 106.933 19.879 A 1.438 1.438 0 0 1 107.1 19.234 Z M 204.95 19.234 Q 204.55 19.584 204.175 20.259 A 1.715 1.715 0 0 0 203.93 21.086 A 1.155 1.155 0 0 0 204 21.484 Q 204.2 21.984 204.9 22.284 Q 205.6 22.584 206.15 22.584 Q 205.65 22.384 205.475 21.934 Q 205.3 21.484 205.1 21.084 Q 204.95 20.634 204.825 20.184 A 1.136 1.136 0 0 1 204.783 19.879 A 1.438 1.438 0 0 1 204.95 19.234 Z M 201.61 32.436 A 12.269 12.269 0 0 0 203.575 29.909 A 6.948 6.948 0 0 0 204.12 28.86 A 4.915 4.915 0 0 0 202.5 30.384 A 5.726 5.726 0 0 0 201.61 32.436 Z M 107.1 19.234 Q 106.95 18.734 107 17.984 Q 107.05 17.234 107.5 16.934 Q 107.9 16.584 108.65 16.734 Q 109.4 16.884 109.8 17.184 A 1.314 1.314 0 0 0 109.542 17.157 A 1.018 1.018 0 0 0 108.925 17.359 Q 108.55 17.634 108.2 17.884 Q 107.85 18.134 107.5 18.409 Q 107.15 18.684 107.1 19.234 Z M 204.95 19.234 Q 204.8 18.734 204.85 17.984 Q 204.9 17.234 205.35 16.934 Q 205.75 16.584 206.5 16.734 Q 207.25 16.884 207.65 17.184 A 1.314 1.314 0 0 0 207.392 17.157 A 1.018 1.018 0 0 0 206.775 17.359 Q 206.4 17.634 206.05 17.884 Q 205.7 18.134 205.35 18.409 Q 205 18.684 204.95 19.234 Z M 38.379 14.694 A 5.894 5.894 0 0 0 38.75 13.784 A 6.156 6.156 0 0 0 39.041 11.973 A 4.931 4.931 0 0 0 39 11.334 A 5.826 5.826 0 0 0 38.994 11.278 A 5.94 5.94 0 0 0 38.6 12.084 A 5.547 5.547 0 0 0 38.33 13.848 A 7.914 7.914 0 0 0 38.379 14.694 Z M 116.7 32.434 A 5.74 5.74 0 0 0 116.667 33.067 A 7.186 7.186 0 0 0 116.675 33.409 Q 116.7 33.934 116.95 34.384 Q 117.1 33.984 117.075 33.534 Q 117.05 33.084 116.95 32.684 Q 116.95 32.484 116.9 32.259 Q 116.85 32.034 116.75 31.834 Q 116.75 32.084 116.7 32.434 Z M 214.55 32.434 A 5.74 5.74 0 0 0 214.517 33.067 A 7.186 7.186 0 0 0 214.525 33.409 Q 214.55 33.934 214.8 34.384 Q 214.95 33.984 214.925 33.534 Q 214.9 33.084 214.8 32.684 Q 214.8 32.484 214.75 32.259 Q 214.7 32.034 214.6 31.834 Q 214.6 32.084 214.55 32.434 Z M 98.845 23.149 A 3.61 3.61 0 0 0 100.125 21.784 A 5.995 5.995 0 0 0 100.311 21.413 A 10.408 10.408 0 0 0 99.45 22.334 A 5.861 5.861 0 0 0 98.845 23.149 Z M 116.8 22.834 Q 116.7 22.934 116.65 23.034 Q 117.5 22.434 118.1 21.634 Q 117.7 21.884 117.375 22.184 Q 117.05 22.484 116.8 22.834 Z M 214.65 22.834 Q 214.55 22.934 214.5 23.034 Q 215.35 22.434 215.95 21.634 Q 215.55 21.884 215.225 22.184 Q 214.9 22.484 214.65 22.834 Z M 25.35 19.384 Q 25.2 20.034 25.25 20.534 Q 25.4 19.984 25.35 19.384 Z"/></g></svg>