<svg width="188.928" height="30.584" viewBox="0 0 188.928 30.584" xmlns="http://www.w3.org/2000/svg"><g id="svgGroup" stroke-linecap="round" fill-rule="evenodd" font-size="9pt" stroke="#000000" stroke-width="0.25mm" fill="#000000" style="stroke:#000000;stroke-width:0.25mm;fill:#000000"><path d="M 81.986 11.796 A 2.262 2.262 0 0 0 81.888 11.798 Q 82.592 12.022 83.056 12.55 Q 83.52 13.078 83.712 13.622 A 3.7 3.7 0 0 1 83.922 14.457 A 3.725 3.725 0 0 0 82.88 15.638 Q 82.144 16.886 82.144 18.262 Q 82.144 19.638 82.88 20.886 A 3.725 3.725 0 0 0 84.127 22.208 A 3.626 3.626 0 0 1 83.616 22.71 A 3.273 3.273 0 0 0 84.339 22.333 A 3.725 3.725 0 0 0 84.896 22.582 A 7.48 7.48 0 0 1 84.488 22.223 A 3.273 3.273 0 0 0 85.152 21.526 Q 85.792 20.662 85.792 19.734 A 3.016 3.016 0 0 0 85.633 18.8 A 3.036 3.036 0 0 0 85.744 18.95 Q 86.4 19.83 87.296 20.182 Q 86.56 19.542 86.208 18.71 Q 85.856 17.878 85.856 17.11 Q 85.856 16.342 86.208 15.51 Q 86.56 14.678 87.296 14.07 Q 86.4 14.39 85.744 15.27 Q 85.088 16.15 85.088 17.11 A 3.036 3.036 0 0 0 85.249 18.041 A 3.016 3.016 0 0 0 85.152 17.91 Q 84.512 17.046 83.616 16.726 Q 84.352 17.334 84.688 18.15 Q 85.024 18.966 85.024 19.734 Q 85.024 20.47 84.688 21.286 A 3.626 3.626 0 0 1 84.277 22.016 A 7.48 7.48 0 0 1 83.152 20.534 Q 82.464 19.35 82.464 18.262 Q 82.464 17.174 83.152 15.99 A 7.48 7.48 0 0 1 83.952 14.863 A 3.7 3.7 0 0 1 83.952 14.886 A 2.569 2.569 0 0 1 83.953 14.946 A 2.598 2.598 0 0 1 83.616 16.214 Q 84.192 15.734 84.448 14.886 A 2.808 2.808 0 0 0 84.571 14.223 A 7.48 7.48 0 0 1 84.896 13.942 A 3.725 3.725 0 0 0 84.576 14.071 A 2.148 2.148 0 0 0 84.448 13.334 Q 84.16 12.662 83.392 12.214 A 2.78 2.78 0 0 0 81.986 11.796 Z M 165.902 9.597 A 3.614 3.614 0 0 0 165.888 9.59 A 7.643 7.643 0 0 1 165.896 9.598 A 3.281 3.281 0 0 0 164.576 10.134 Q 163.616 10.774 163.168 11.766 A 3.674 3.674 0 0 0 162.799 13.387 A 4.215 4.215 0 0 0 162.832 13.91 Q 162.976 15.062 163.744 15.83 Q 163.264 14.838 163.168 13.766 Q 163.072 12.694 163.456 11.894 A 3.678 3.678 0 0 1 163.899 11.208 A 2.663 2.663 0 0 1 164.448 12.102 Q 164.672 12.726 164.672 13.302 Q 164.672 13.878 164.448 14.502 Q 164.224 15.126 163.68 15.606 Q 164.352 15.35 164.896 14.694 A 2.148 2.148 0 0 0 165.201 14.25 A 3.704 3.704 0 0 0 165.248 14.598 Q 165.44 15.67 166.112 16.342 Q 165.728 15.478 165.776 14.598 Q 165.824 13.718 166.144 13.046 Q 166.496 12.342 167.152 11.766 A 3.657 3.657 0 0 1 167.306 11.64 A 7.643 7.643 0 0 1 167.328 11.686 Q 167.872 12.854 167.776 13.878 Q 167.68 14.902 166.928 15.942 A 7.524 7.524 0 0 1 166.03 16.974 A 2.834 2.834 0 0 0 164.96 17.894 Q 164.48 18.55 164.512 19.222 Q 164.544 19.926 165.104 20.518 Q 165.664 21.11 166.336 21.334 Q 165.76 20.918 165.536 20.326 Q 165.312 19.734 165.28 19.19 Q 165.248 18.646 165.408 18.038 A 2.273 2.273 0 0 1 165.606 17.549 A 3.639 3.639 0 0 0 167.152 16.294 Q 167.968 15.19 168.096 13.91 A 4.561 4.561 0 0 0 168.119 13.456 A 4.796 4.796 0 0 0 167.644 11.407 A 3.657 3.657 0 0 1 168.736 10.966 A 2.931 2.931 0 0 0 168.434 10.95 A 3.437 3.437 0 0 0 167.49 11.098 A 3.614 3.614 0 0 0 166.128 9.716 A 5.906 5.906 0 0 1 166.624 9.558 A 3.35 3.35 0 0 0 166.427 9.552 A 3.281 3.281 0 0 0 165.902 9.597 Z M 45.6 10.902 Q 46.144 9.878 47.136 9.43 Q 47.136 8.054 48.032 7.318 A 2.421 2.421 0 0 1 49.658 6.754 A 3.826 3.826 0 0 1 50.272 6.806 Q 49.728 6.486 49.024 6.566 Q 48.32 6.646 47.808 7.062 Q 47.328 7.478 47.12 8.15 Q 46.912 8.822 47.136 9.43 Q 46.144 9.878 45.6 10.902 A 3.922 3.922 0 0 0 45.113 12.76 A 3.668 3.668 0 0 0 45.12 12.982 A 3.923 3.923 0 0 0 45.17 13.401 A 2.673 2.673 0 0 0 45.168 13.398 Q 44.832 12.726 44.256 12.47 Q 43.648 12.246 42.928 12.47 Q 42.208 12.694 41.792 13.142 A 1.927 1.927 0 0 1 42.704 12.906 A 1.886 1.886 0 0 1 42.912 12.918 Q 43.488 12.982 43.936 13.174 Q 44.416 13.366 44.848 13.734 Q 45.28 14.102 45.472 14.71 A 2.233 2.233 0 0 0 45.475 14.598 A 2.673 2.673 0 0 0 45.458 14.343 A 3.923 3.923 0 0 0 45.856 15.03 A 3.211 3.211 0 0 0 47.209 16.178 A 3.738 3.738 0 0 1 47.712 17.206 Q 47.904 17.814 47.84 18.582 Q 47.776 19.35 47.328 20.022 Q 48 19.542 48.352 18.662 A 2.662 2.662 0 0 0 48.556 17.67 A 2.244 2.244 0 0 0 48.448 16.982 Q 48.224 16.182 47.44 15.638 A 3.222 3.222 0 0 0 46.369 15.124 A 6.552 6.552 0 0 1 46.096 14.742 Q 45.504 13.846 45.44 12.982 Q 45.408 12.118 45.888 11.142 Q 46.368 10.166 47.136 9.43 M 109.28 17.238 A 3.25 3.25 0 0 0 108.459 16.294 A 3.782 3.782 0 0 1 108.139 14.793 A 3.586 3.586 0 0 1 108.144 14.598 Q 108.192 13.718 108.512 13.046 Q 108.864 12.342 109.52 11.766 Q 110.176 11.19 111.104 10.966 A 2.931 2.931 0 0 0 110.802 10.95 A 3.437 3.437 0 0 0 109.216 11.366 Q 108.256 11.862 107.84 12.694 A 2.757 2.757 0 0 0 107.555 13.945 A 3.704 3.704 0 0 0 107.616 14.598 A 3.189 3.189 0 0 0 108.383 16.237 A 3.25 3.25 0 0 0 107.552 15.798 Q 108.448 16.534 109.024 17.526 Q 109.6 18.518 109.6 19.446 Q 109.6 20.342 109.024 21.35 Q 108.448 22.358 107.584 23.094 A 3.179 3.179 0 0 0 108.418 22.65 A 2.721 2.721 0 0 0 108.336 23.126 A 2.672 2.672 0 0 0 108.321 23.403 A 1.863 1.863 0 0 0 108.608 24.438 Q 108.992 24.982 109.744 25.206 A 2.906 2.906 0 0 0 110.572 25.336 A 2.081 2.081 0 0 0 111.104 25.27 Q 110.464 25.206 110 24.838 Q 109.536 24.47 109.248 24.022 Q 108.96 23.574 108.8 23.014 A 2.101 2.101 0 0 1 108.72 22.434 A 2.553 2.553 0 0 1 108.721 22.395 A 3.179 3.179 0 0 0 109.296 21.654 Q 109.92 20.598 109.92 19.446 Q 109.92 18.294 109.28 17.238 Z M 22.846 1.818 A 3.021 3.021 0 0 0 21.632 2.07 A 6.32 6.32 0 0 1 22.014 2.058 A 6.092 6.092 0 0 1 23.696 2.294 Q 24.704 2.582 25.312 3.19 Q 25.888 3.798 26.144 4.822 A 6.188 6.188 0 0 1 26.264 5.422 A 3.242 3.242 0 0 0 25.744 5.782 A 4.138 4.138 0 0 0 25.378 6.109 A 2.891 2.891 0 0 0 24.896 5.478 Q 24.16 4.694 23.264 4.47 Q 24.032 4.982 24.464 5.75 A 3.729 3.729 0 0 1 24.868 6.735 A 4.138 4.138 0 0 0 24.416 7.638 A 3.932 3.932 0 0 0 24.18 8.992 A 4.592 4.592 0 0 0 24.271 9.887 A 3.772 3.772 0 0 1 23.904 10.326 A 3.119 3.119 0 0 0 24.312 10.088 A 3.168 3.168 0 0 0 25.376 11.798 A 5.966 5.966 0 0 1 24.629 9.837 A 3.119 3.119 0 0 0 25.28 9.014 Q 25.824 8.086 25.728 7.158 A 2.891 2.891 0 0 0 25.544 6.455 A 3.802 3.802 0 0 1 25.888 6.15 A 6.84 6.84 0 0 1 26.31 5.826 A 6.188 6.188 0 0 1 26.33 6.328 A 6.333 6.333 0 0 1 26.304 6.902 A 3.065 3.065 0 0 0 26.595 5.635 A 6.84 6.84 0 0 1 27.84 5.014 A 3.242 3.242 0 0 0 26.58 5.268 A 3.538 3.538 0 0 0 26.512 4.838 Q 26.272 3.734 25.536 2.966 Q 24.8 2.198 23.696 1.926 A 3.549 3.549 0 0 0 22.846 1.818 Z M 27.936 19.67 Q 28.256 18.774 29.12 18.134 Q 29.984 17.494 30.944 17.526 Q 31.488 17.526 32.048 17.766 Q 32.608 18.006 33.024 18.422 Q 32.448 17.686 32.32 16.854 Q 32.8 17.718 33.552 18.23 Q 34.304 18.742 35.072 18.902 A 2.043 2.043 0 0 1 35.798 18.756 A 1.461 1.461 0 0 1 36.288 18.838 Q 36.384 18.87 36.48 18.934 Q 36.992 18.838 37.472 18.63 Q 37.952 18.422 38.4 18.07 Q 38.272 18.294 38.112 18.486 Q 38.496 18.262 38.88 18.23 Q 38.496 18.422 38.352 18.774 Q 38.208 19.126 38.112 19.446 Q 38.016 19.798 37.968 20.166 A 0.895 0.895 0 0 0 37.96 20.282 A 1.018 1.018 0 0 0 38.176 20.886 Q 37.824 20.662 37.536 20.166 Q 37.248 19.67 37.376 19.254 L 37.44 19.062 Q 37.248 19.19 36.992 19.318 Q 37.632 20.022 37.664 20.95 Q 37.472 20.406 37.056 20.102 Q 36.64 19.798 36.192 19.606 Q 35.52 19.766 34.912 19.67 Q 34.656 19.606 34.4 19.478 Q 34.144 19.574 33.92 19.702 Q 34.048 19.542 34.208 19.414 Q 33.792 19.19 33.44 18.87 Q 33.76 19.254 33.92 19.702 Q 33.312 18.998 32.496 18.646 Q 31.68 18.294 30.944 18.294 A 3.082 3.082 0 0 0 30.816 18.291 A 3.663 3.663 0 0 0 29.36 18.614 Q 28.544 18.966 27.936 19.67 Z M 126.176 16.438 Q 126.976 16.726 127.6 17.526 Q 128.224 18.326 128.224 19.19 Q 128.224 20.054 127.6 20.854 A 3.183 3.183 0 0 1 126.703 21.681 A 6.603 6.603 0 0 0 126.478 23.009 A 2.657 2.657 0 0 1 126.656 23.75 A 2.675 2.675 0 0 1 126.677 24.075 A 1.805 1.805 0 0 1 126.585 24.684 A 3.917 3.917 0 0 0 127.072 25.846 Q 127.584 26.646 128.64 27.158 Q 129.696 27.67 130.848 27.798 A 3.11 3.11 0 0 1 130.071 27.898 A 3.4 3.4 0 0 1 128.592 27.542 Q 127.456 26.998 126.816 26.038 A 4.138 4.138 0 0 1 126.348 25.15 A 1.898 1.898 0 0 1 125.296 25.846 A 2.939 2.939 0 0 1 124.457 25.976 A 2.271 2.271 0 0 1 123.904 25.91 Q 124.544 25.846 125.008 25.462 Q 125.472 25.078 125.76 24.662 A 3.763 3.763 0 0 0 126.09 24.008 A 4.138 4.138 0 0 1 126.08 23.83 A 4.022 4.022 0 0 1 126.075 23.624 A 3.299 3.299 0 0 1 126.22 22.614 A 2.343 2.343 0 0 0 126.176 22.454 A 2.657 2.657 0 0 1 126.24 22.549 A 3.299 3.299 0 0 1 126.659 21.708 A 3.183 3.183 0 0 1 126.176 21.942 Q 126.848 21.398 127.152 20.646 Q 127.456 19.894 127.456 19.19 Q 127.456 18.486 127.152 17.734 Q 126.848 16.982 126.176 16.438 Z M 60.768 20.95 Q 61.088 20.502 61.728 20.198 A 1.837 1.837 0 0 1 62.512 19.999 A 1.228 1.228 0 0 1 62.88 20.054 Q 63.424 20.214 63.792 20.806 Q 64.16 21.398 64.192 21.974 A 1.705 1.705 0 0 0 64.066 21.728 A 6.603 6.603 0 0 0 63.84 23.445 A 6.807 6.807 0 0 0 63.856 23.91 A 3.917 3.917 0 0 0 64.14 25.243 A 1.576 1.576 0 0 0 64.16 25.206 Q 64.384 24.758 64.48 24.342 A 3.825 3.825 0 0 0 64.562 23.539 A 4.365 4.365 0 0 0 64.56 23.398 Q 64.544 22.902 64.192 22.486 Q 64.672 22.774 65.008 23.366 Q 65.344 23.958 65.216 24.502 Q 65.088 25.046 64.528 25.446 A 2.392 2.392 0 0 1 64.305 25.597 A 3.917 3.917 0 0 0 64.448 25.846 Q 64.96 26.646 66.016 27.158 Q 67.072 27.67 68.224 27.798 A 3.11 3.11 0 0 1 67.447 27.898 A 3.4 3.4 0 0 1 65.968 27.542 Q 64.832 26.998 64.192 26.038 A 4.138 4.138 0 0 1 64.008 25.747 A 2.392 2.392 0 0 1 63.424 25.91 A 1.576 1.576 0 0 0 63.907 25.562 A 4.138 4.138 0 0 1 63.456 23.83 A 4.022 4.022 0 0 1 63.451 23.624 A 3.299 3.299 0 0 1 64.044 21.694 A 1.705 1.705 0 0 0 63.536 21.19 Q 63.104 20.918 62.688 20.79 Q 62.24 20.662 61.744 20.646 A 1.464 1.464 0 0 0 61.697 20.645 A 1.659 1.659 0 0 0 60.768 20.95 Z M 126.176 9.91 Q 127.072 10.23 127.744 11.126 Q 128.416 12.022 128.416 12.982 Q 128.416 13.942 127.744 14.838 Q 127.072 15.734 126.176 16.054 Q 126.912 15.446 127.28 14.598 A 4.061 4.061 0 0 0 127.647 13.039 A 6.661 6.661 0 0 0 126.272 14.294 Q 125.504 15.222 125.376 16.182 A 3.314 3.314 0 0 0 125.332 16.727 A 4.41 4.41 0 0 0 125.632 18.262 Q 126.048 19.382 126.848 20.278 Q 125.792 19.702 125.328 18.502 A 4.657 4.657 0 0 1 125 16.812 A 4.332 4.332 0 0 1 125.056 16.118 Q 125.248 14.934 126.08 13.958 A 3.433 3.433 0 0 1 127.645 12.876 A 4.061 4.061 0 0 0 127.28 11.366 Q 126.912 10.518 126.176 9.91 Z M 63.904 10.454 Q 64.512 10.806 64.928 11.526 A 2.304 2.304 0 0 1 65.266 12.685 A 1.956 1.956 0 0 1 65.262 12.805 A 3.433 3.433 0 0 1 65.472 12.758 A 6.661 6.661 0 0 0 65.256 12.887 A 1.956 1.956 0 0 1 65.248 12.95 Q 65.12 13.654 64.496 14.198 A 2.766 2.766 0 0 1 63.236 14.855 A 3.751 3.751 0 0 0 62.752 16.182 A 3.314 3.314 0 0 0 62.708 16.727 A 4.41 4.41 0 0 0 63.008 18.262 Q 63.424 19.382 64.224 20.278 Q 63.168 19.702 62.704 18.502 A 4.657 4.657 0 0 1 62.376 16.812 A 4.332 4.332 0 0 1 62.411 16.265 A 1.806 1.806 0 0 1 61.536 17.174 Q 60.992 17.462 60.24 17.27 Q 59.488 17.078 59.04 16.63 Q 59.616 16.886 60.192 16.79 Q 60.768 16.694 61.216 16.502 Q 61.664 16.278 62.096 15.878 Q 62.528 15.478 62.688 14.87 A 2.16 2.16 0 0 1 62.699 15.085 A 2.724 2.724 0 0 1 62.695 15.19 A 4.363 4.363 0 0 1 63.456 13.958 A 3.433 3.433 0 0 1 64.401 13.155 A 3.837 3.837 0 0 0 64.48 12.822 A 3.003 3.003 0 0 0 64.524 12.299 A 3.838 3.838 0 0 0 64.464 11.638 Q 64.352 10.998 63.904 10.454 Z M 144.61 11.796 A 2.262 2.262 0 0 0 144.512 11.798 Q 145.216 12.022 145.68 12.55 A 3.307 3.307 0 0 1 146.112 13.143 A 3.179 3.179 0 0 0 145.808 13.59 Q 145.184 14.646 145.184 15.766 Q 145.184 16.918 145.808 17.974 Q 146.432 19.03 147.52 19.414 Q 146.656 18.678 146.08 17.686 Q 145.504 16.694 145.504 15.766 Q 145.504 14.87 146.08 13.878 A 6.617 6.617 0 0 1 146.298 13.526 A 3.307 3.307 0 0 1 146.336 13.622 Q 146.56 14.198 146.576 14.886 A 2.569 2.569 0 0 1 146.577 14.946 A 2.598 2.598 0 0 1 146.24 16.214 Q 146.816 15.734 147.072 14.886 Q 147.328 14.038 147.072 13.334 A 2.412 2.412 0 0 0 146.793 12.873 A 6.617 6.617 0 0 1 147.52 12.15 A 3.179 3.179 0 0 0 146.605 12.655 A 2.412 2.412 0 0 0 146.016 12.214 A 2.78 2.78 0 0 0 144.61 11.796 Z M 128.576 12.598 Q 129.856 13.046 130.576 14.294 Q 131.296 15.542 131.296 16.886 Q 131.296 18.23 130.576 19.478 A 3.657 3.657 0 0 1 128.981 21.004 A 3.178 3.178 0 0 0 128.94 21.528 A 3.971 3.971 0 0 0 129.008 22.246 Q 129.152 23.03 129.664 23.702 Q 128.96 23.254 128.528 22.358 A 2.922 2.922 0 0 1 128.213 21.084 A 2.401 2.401 0 0 1 128.256 20.63 Q 128.448 19.798 129.2 19.142 A 2.907 2.907 0 0 1 130.662 18.409 A 4.447 4.447 0 0 0 130.976 16.886 Q 130.976 15.798 130.288 14.63 Q 129.6 13.462 128.576 12.598 Z M 35.2 11.446 L 35.264 11.35 Q 35.104 11.158 35.008 10.966 Q 35.168 11.126 35.36 11.222 Q 35.968 10.518 36.944 10.166 A 3.417 3.417 0 0 1 38.107 9.951 A 2.912 2.912 0 0 1 38.816 10.038 Q 39.52 10.23 40.128 10.774 L 40 10.518 Q 40.512 11.126 41.184 11.382 Q 41.856 11.638 42.496 11.638 Q 43.136 11.638 43.808 11.382 Q 44.48 11.126 44.992 10.518 Q 44.736 11.254 44.016 11.83 Q 43.296 12.406 42.496 12.406 Q 41.632 12.406 40.864 11.702 Q 41.216 12.374 41.28 13.046 Q 40.96 12.342 40.416 11.814 Q 39.872 11.286 39.264 11.03 Q 38.976 11.542 38.48 11.942 Q 37.984 12.342 37.44 12.406 Q 36.864 12.502 36.272 12.182 Q 35.68 11.862 35.296 11.382 Q 35.264 11.414 35.2 11.446 Z M 86.289 24.644 A 3.196 3.196 0 0 0 86.114 23.6 A 1.778 1.778 0 0 0 86.24 23.75 Q 86.72 24.31 87.296 24.502 Q 86.848 24.118 86.688 23.59 Q 86.528 23.062 86.528 22.582 Q 86.528 22.102 86.688 21.59 Q 86.848 21.078 87.296 20.694 Q 86.72 20.886 86.24 21.446 Q 85.76 22.006 85.76 22.582 A 1.778 1.778 0 0 0 86.025 23.469 A 6.26 6.26 0 0 1 86.039 23.885 A 6.046 6.046 0 0 1 85.808 25.542 Q 85.504 26.614 84.864 27.254 Q 84.224 27.862 83.136 28.134 A 6.679 6.679 0 0 1 81.51 28.335 A 6.814 6.814 0 0 1 80.928 28.31 Q 81.952 28.79 83.12 28.518 Q 84.288 28.246 85.088 27.478 Q 85.888 26.678 86.176 25.526 A 3.629 3.629 0 0 0 86.289 24.644 Z M 70.56 15.382 L 70.624 15.35 Q 70.112 14.966 69.824 14.454 Q 70.528 15.03 71.392 15.286 Q 71.744 15.286 72.128 15.414 A 4.809 4.809 0 0 0 72.448 15.424 A 4.837 4.837 0 0 0 73.088 15.382 Q 73.472 15.318 73.856 15.158 A 2.073 2.073 0 0 1 73.853 15.049 A 1.456 1.456 0 0 1 74.144 14.134 Q 74.4 13.814 74.864 13.67 A 2.584 2.584 0 0 1 75.634 13.552 A 2.615 2.615 0 0 1 75.808 13.558 Q 75.84 13.494 75.84 13.462 L 75.84 13.558 Q 76.096 13.558 76.352 13.654 Q 76.032 13.654 75.776 13.75 Q 75.392 15.062 74.176 15.766 A 2.108 2.108 0 0 0 74.165 15.976 A 1.831 1.831 0 0 0 74.208 16.374 Q 74.048 16.182 73.984 15.894 Q 73.664 16.054 73.376 16.118 Q 73.568 16.278 73.696 16.47 Q 73.408 16.278 73.088 16.15 Q 72.384 16.246 71.648 15.958 Q 71.2 15.99 70.784 16.118 Q 70.144 16.31 69.536 16.806 Q 68.928 17.302 68.608 18.102 Q 68.64 17.238 69.2 16.438 Q 69.76 15.638 70.56 15.382 Z M 133.184 15.382 L 133.248 15.35 Q 132.736 14.966 132.448 14.454 Q 133.152 15.03 134.016 15.286 Q 134.368 15.286 134.752 15.414 A 4.809 4.809 0 0 0 135.072 15.424 A 4.837 4.837 0 0 0 135.712 15.382 Q 136.096 15.318 136.48 15.158 A 2.073 2.073 0 0 1 136.477 15.049 A 1.456 1.456 0 0 1 136.768 14.134 Q 137.024 13.814 137.488 13.67 A 2.584 2.584 0 0 1 138.258 13.552 A 2.615 2.615 0 0 1 138.432 13.558 Q 138.464 13.494 138.464 13.462 L 138.464 13.558 Q 138.72 13.558 138.976 13.654 Q 138.656 13.654 138.4 13.75 Q 138.016 15.062 136.8 15.766 A 2.108 2.108 0 0 0 136.789 15.976 A 1.831 1.831 0 0 0 136.832 16.374 Q 136.672 16.182 136.608 15.894 Q 136.288 16.054 136 16.118 Q 136.192 16.278 136.32 16.47 Q 136.032 16.278 135.712 16.15 Q 135.008 16.246 134.272 15.958 Q 133.824 15.99 133.408 16.118 Q 132.768 16.31 132.16 16.806 Q 131.552 17.302 131.232 18.102 Q 131.264 17.238 131.824 16.438 Q 132.384 15.638 133.184 15.382 Z M 146.24 16.726 Q 147.136 17.046 147.776 17.91 A 3.016 3.016 0 0 1 148.32 19.014 A 1.9 1.9 0 0 1 148.816 17.798 Q 149.312 17.206 149.92 16.982 Q 149.44 17.398 149.264 17.958 Q 149.088 18.518 149.088 19.03 Q 149.088 19.542 149.264 20.102 Q 149.44 20.662 149.92 21.078 Q 149.312 20.854 148.816 20.262 A 1.9 1.9 0 0 1 148.409 19.557 A 3.016 3.016 0 0 1 148.416 19.734 Q 148.416 20.662 147.776 21.526 Q 147.136 22.39 146.24 22.71 Q 146.976 22.102 147.312 21.286 Q 147.648 20.47 147.648 19.734 Q 147.648 18.966 147.312 18.15 Q 146.976 17.334 146.24 16.726 Z M 102.912 11.03 Q 103.744 10.966 104.624 11.414 A 2.573 2.573 0 0 1 105.431 12.004 A 3.674 3.674 0 0 1 105.536 11.766 Q 105.984 10.774 106.944 10.134 Q 107.904 9.494 108.992 9.558 Q 107.936 9.846 107.056 10.486 Q 106.176 11.126 105.824 11.894 A 3.319 3.319 0 0 0 105.667 12.301 A 2.573 2.573 0 0 1 105.856 12.63 A 2.396 2.396 0 0 1 106.071 13.64 A 3.157 3.157 0 0 1 105.984 14.358 A 3.184 3.184 0 0 1 105.78 14.994 A 5.915 5.915 0 0 0 106.112 15.83 A 3.191 3.191 0 0 1 105.654 15.248 A 3.184 3.184 0 0 1 105.152 15.926 A 3.383 3.383 0 0 0 105.453 14.864 A 3.191 3.191 0 0 1 105.2 13.91 A 4.215 4.215 0 0 1 105.167 13.387 A 3.674 3.674 0 0 1 105.183 13.023 A 3.818 3.818 0 0 0 105.152 12.95 Q 104.864 12.342 104.288 11.798 Q 103.712 11.254 102.912 11.03 Z M 50.864 17.894 A 3.071 3.071 0 0 0 50.759 17.696 A 1.622 1.622 0 0 0 51.376 17.878 Q 52.096 17.974 52.672 17.75 Q 52.064 17.75 51.616 17.462 Q 51.168 17.174 50.848 16.822 Q 50.528 16.438 50.304 15.958 Q 50.08 15.478 50.176 14.87 Q 49.888 15.382 49.872 16.118 A 2.491 2.491 0 0 0 49.871 16.172 A 1.594 1.594 0 0 0 49.969 16.796 A 3.071 3.071 0 0 0 49.44 16.47 Q 50.176 17.206 50.608 18.134 A 3.659 3.659 0 0 1 50.984 19.678 A 2.819 2.819 0 0 1 50.976 19.894 Q 50.88 20.694 50.304 21.542 Q 49.728 22.39 48.896 22.998 Q 49.888 22.71 50.544 21.83 Q 51.2 20.95 51.264 19.926 A 3.758 3.758 0 0 0 51.28 19.585 A 3.69 3.69 0 0 0 50.864 17.894 Z M 117.664 18.038 L 117.664 17.91 A 1.93 1.93 0 0 1 117.145 17.979 A 2.463 2.463 0 0 1 116.416 17.862 Q 115.744 17.654 115.296 17.238 Q 115.904 17.494 116.496 17.43 Q 117.088 17.366 117.568 17.142 Q 117.92 16.982 118.176 16.79 Q 118.4 16.502 118.688 16.278 Q 118.976 15.926 119.104 15.446 A 1.77 1.77 0 0 1 119.115 15.641 A 2.102 2.102 0 0 1 119.072 16.054 L 119.328 15.926 Q 119.168 16.054 119.04 16.214 Q 118.912 16.854 118.496 17.334 Q 118.432 17.686 118.432 18.038 Q 118.432 18.582 118.624 19.158 Q 118.816 19.734 119.328 20.182 Q 119.072 20.086 118.848 19.926 Q 119.04 20.278 119.104 20.662 Q 118.816 20.15 118.352 19.926 Q 117.888 19.702 117.408 19.606 A 3.766 3.766 0 0 0 116.875 19.569 A 4.577 4.577 0 0 0 116.448 19.59 Q 115.936 19.638 115.488 19.99 Q 115.776 19.51 116.384 19.142 A 1.819 1.819 0 0 1 117.328 18.85 A 1.456 1.456 0 0 1 117.568 18.87 Q 117.76 18.902 117.952 18.998 Q 117.664 18.518 117.664 18.038 Z M 175.296 18.038 L 175.296 17.91 A 1.93 1.93 0 0 1 174.777 17.979 A 2.463 2.463 0 0 1 174.048 17.862 Q 173.376 17.654 172.928 17.238 Q 173.536 17.494 174.128 17.43 Q 174.72 17.366 175.2 17.142 Q 175.552 16.982 175.808 16.79 Q 176.032 16.502 176.32 16.278 Q 176.608 15.926 176.736 15.446 A 1.77 1.77 0 0 1 176.747 15.641 A 2.102 2.102 0 0 1 176.704 16.054 L 176.96 15.926 Q 176.8 16.054 176.672 16.214 Q 176.544 16.854 176.128 17.334 Q 176.064 17.686 176.064 18.038 Q 176.064 18.582 176.256 19.158 Q 176.448 19.734 176.96 20.182 Q 176.704 20.086 176.48 19.926 Q 176.672 20.278 176.736 20.662 Q 176.448 20.15 175.984 19.926 Q 175.52 19.702 175.04 19.606 A 3.766 3.766 0 0 0 174.507 19.569 A 4.577 4.577 0 0 0 174.08 19.59 Q 173.568 19.638 173.12 19.99 Q 173.408 19.51 174.016 19.142 A 1.819 1.819 0 0 1 174.96 18.85 A 1.456 1.456 0 0 1 175.2 18.87 Q 175.392 18.902 175.584 18.998 Q 175.296 18.518 175.296 18.038 Z M 61.696 28.31 Q 60.928 29.462 59.536 29.91 A 5.225 5.225 0 0 1 57.928 30.171 A 4.856 4.856 0 0 1 56.8 30.038 Q 55.456 29.718 54.384 28.71 Q 53.312 27.702 53.152 26.326 Q 53.792 27.574 54.784 28.534 Q 55.776 29.494 56.864 29.718 Q 57.952 29.974 59.264 29.558 Q 60.576 29.142 61.696 28.31 Z M 186.208 12.598 Q 187.488 13.046 188.208 14.294 Q 188.928 15.542 188.928 16.886 Q 188.928 18.23 188.208 19.478 Q 187.488 20.726 186.208 21.174 Q 187.232 20.31 187.92 19.142 Q 188.608 17.974 188.608 16.886 Q 188.608 15.798 187.92 14.63 Q 187.232 13.462 186.208 12.598 Z M 105.184 16.438 Q 105.952 16.726 106.544 17.478 A 2.524 2.524 0 0 1 107.035 18.394 A 2.093 2.093 0 0 1 107.328 17.894 Q 107.808 17.238 108.448 16.95 Q 107.936 17.43 107.776 18.038 Q 107.616 18.646 107.648 19.19 Q 107.68 19.734 107.904 20.326 Q 108.128 20.918 108.704 21.334 Q 108.032 21.11 107.472 20.518 A 1.99 1.99 0 0 1 107.009 19.813 A 2.524 2.524 0 0 1 106.544 20.646 Q 105.952 21.398 105.184 21.686 Q 105.824 21.142 106.096 20.438 Q 106.368 19.734 106.368 19.062 Q 106.368 18.39 106.096 17.686 Q 105.824 16.982 105.184 16.438 Z M 76.576 7.542 Q 77.472 6.582 78.864 6.39 Q 80.256 6.198 81.472 6.742 Q 82.688 7.254 83.504 8.374 A 3.733 3.733 0 0 1 84.261 10.616 A 3.895 3.895 0 0 1 84.256 10.806 Q 83.872 9.558 83.088 8.502 Q 82.304 7.446 81.344 7.03 A 3.913 3.913 0 0 0 79.774 6.729 A 5.8 5.8 0 0 0 79.072 6.774 Q 77.76 6.934 76.576 7.542 Z M 139.2 7.542 Q 140.096 6.582 141.488 6.39 Q 142.88 6.198 144.096 6.742 Q 145.312 7.254 146.128 8.374 A 3.733 3.733 0 0 1 146.885 10.616 A 3.895 3.895 0 0 1 146.88 10.806 Q 146.496 9.558 145.712 8.502 Q 144.928 7.446 143.968 7.03 A 3.913 3.913 0 0 0 142.398 6.729 A 5.8 5.8 0 0 0 141.696 6.774 Q 140.384 6.934 139.2 7.542 Z M 38.016 28.63 Q 37.344 29.75 36.048 30.23 A 5.039 5.039 0 0 1 34.288 30.557 A 4.726 4.726 0 0 1 33.472 30.486 Q 32.192 30.262 31.136 29.35 Q 30.08 28.438 29.856 27.158 Q 30.528 28.278 31.52 29.126 Q 32.512 29.974 33.536 30.166 Q 34.56 30.358 35.792 29.91 Q 37.024 29.462 38.016 28.63 Z M 117.248 3.606 Q 117.408 2.294 118.416 1.35 Q 119.424 0.406 120.672 0.118 Q 121.952 -0.17 123.264 0.246 Q 124.576 0.662 125.28 1.75 Q 124.256 0.982 123.008 0.582 Q 121.76 0.182 120.736 0.406 Q 119.744 0.662 118.8 1.558 Q 117.856 2.454 117.248 3.606 Z M 174.88 3.606 Q 175.04 2.294 176.048 1.35 Q 177.056 0.406 178.304 0.118 Q 179.584 -0.17 180.896 0.246 Q 182.208 0.662 182.912 1.75 Q 181.888 0.982 180.64 0.582 Q 179.392 0.182 178.368 0.406 Q 177.376 0.662 176.432 1.558 Q 175.488 2.454 174.88 3.606 Z M 92.896 7.83 Q 93.28 6.646 94.4 5.942 Q 95.52 5.238 96.736 5.206 Q 97.984 5.174 99.12 5.814 Q 100.256 6.454 100.736 7.606 Q 99.904 6.678 98.816 6.086 Q 97.728 5.494 96.736 5.526 Q 95.776 5.558 94.72 6.214 Q 93.664 6.87 92.896 7.83 Z M 40.096 2.038 Q 41.024 1.238 42.336 1.158 A 4.963 4.963 0 0 1 42.638 1.149 A 4.229 4.229 0 0 1 44.736 1.686 Q 45.824 2.262 46.512 3.382 A 3.546 3.546 0 0 1 47.07 5.262 A 3.488 3.488 0 0 1 47.04 5.718 Q 46.784 4.534 46.128 3.478 Q 45.472 2.422 44.608 1.942 A 4.182 4.182 0 0 0 42.715 1.537 A 6.044 6.044 0 0 0 42.48 1.542 Q 41.248 1.59 40.096 2.038 Z M 115.84 9.974 Q 116.096 9.462 116.672 9.062 A 1.732 1.732 0 0 1 117.665 8.717 A 1.438 1.438 0 0 1 117.824 8.726 Q 117.952 8.726 118.048 8.79 Q 117.536 8.054 117.536 7.286 Q 117.536 6.454 118.128 5.702 Q 118.72 4.95 119.488 4.662 Q 118.848 5.206 118.576 5.91 Q 118.304 6.614 118.304 7.286 Q 118.304 7.958 118.576 8.662 Q 118.848 9.366 119.488 9.91 Q 119.36 9.846 119.232 9.814 Q 119.424 10.102 119.488 10.422 Q 119.168 9.942 118.688 9.75 Q 118.208 9.558 117.76 9.494 A 3.273 3.273 0 0 0 117.327 9.465 A 3.618 3.618 0 0 0 116.768 9.51 Q 116.256 9.59 115.84 9.974 Z M 173.472 9.974 Q 173.728 9.462 174.304 9.062 A 1.732 1.732 0 0 1 175.297 8.717 A 1.438 1.438 0 0 1 175.456 8.726 Q 175.584 8.726 175.68 8.79 Q 175.168 8.054 175.168 7.286 Q 175.168 6.454 175.76 5.702 Q 176.352 4.95 177.12 4.662 Q 176.48 5.206 176.208 5.91 Q 175.936 6.614 175.936 7.286 Q 175.936 7.958 176.208 8.662 Q 176.48 9.366 177.12 9.91 Q 176.992 9.846 176.864 9.814 Q 177.056 10.102 177.12 10.422 Q 176.8 9.942 176.32 9.75 Q 175.84 9.558 175.392 9.494 A 3.273 3.273 0 0 0 174.959 9.465 A 3.618 3.618 0 0 0 174.4 9.51 Q 173.888 9.59 173.472 9.974 Z M 6.592 2.07 Q 7.328 1.174 8.544 0.918 Q 9.76 0.662 10.88 1.046 Q 11.968 1.43 12.768 2.374 Q 13.568 3.318 13.568 4.47 Q 13.152 3.414 12.4 2.534 Q 11.648 1.654 10.752 1.334 Q 9.888 1.046 8.752 1.254 Q 7.616 1.462 6.592 2.07 Z M 23.904 10.838 Q 24.608 11.094 25.152 11.782 Q 25.696 12.47 25.696 13.206 Q 25.696 13.942 25.152 14.63 A 2.826 2.826 0 0 1 24.919 14.903 A 2.2 2.2 0 0 0 25.024 15.446 Q 25.184 16.022 25.696 16.534 Q 26.208 17.046 26.912 17.334 Q 26.176 17.302 25.552 16.774 Q 24.928 16.246 24.704 15.542 A 2.374 2.374 0 0 1 24.618 15.172 A 2.826 2.826 0 0 1 23.904 15.574 A 2.542 2.542 0 0 0 24.595 14.712 A 2.775 2.775 0 0 1 24.704 14.054 A 2.152 2.152 0 0 1 24.911 13.531 A 3.766 3.766 0 0 0 24.928 13.206 Q 24.928 12.63 24.704 11.974 Q 24.48 11.318 23.904 10.838 Z M 159.189 25.385 A 3.266 3.266 0 0 0 159.168 25.014 Q 158.912 26.134 158.288 27.094 Q 157.664 28.054 156.864 28.47 A 3.689 3.689 0 0 1 155.194 28.83 A 5.29 5.29 0 0 1 154.896 28.822 Q 153.76 28.758 152.704 28.31 Q 153.536 29.078 154.752 29.174 A 4.817 4.817 0 0 0 155.131 29.189 A 4.103 4.103 0 0 0 156.992 28.758 Q 158.016 28.214 158.656 27.174 A 3.37 3.37 0 0 0 159.189 25.385 Z M 13.676 25.543 A 3.194 3.194 0 0 0 13.664 25.27 Q 13.376 26.358 12.72 27.302 Q 12.064 28.246 11.232 28.598 Q 10.4 28.982 9.264 28.886 Q 8.128 28.79 7.104 28.31 Q 7.904 29.11 9.12 29.254 A 4.683 4.683 0 0 0 9.671 29.287 A 3.93 3.93 0 0 0 11.36 28.918 Q 12.384 28.438 13.072 27.414 A 3.308 3.308 0 0 0 13.676 25.543 Z M 147.487 10.79 A 3.277 3.277 0 0 0 147.52 11.254 Q 147.744 10.134 148.336 9.174 Q 148.928 8.214 149.728 7.766 A 3.803 3.803 0 0 1 151.503 7.38 A 5.703 5.703 0 0 1 151.664 7.382 Q 152.8 7.414 153.856 7.83 Q 153.024 7.062 151.808 7.014 A 4.962 4.962 0 0 0 151.612 7.01 A 4.116 4.116 0 0 0 149.6 7.51 Q 148.576 8.022 147.968 9.078 A 3.392 3.392 0 0 0 147.487 10.79 Z M 2.304 19.03 Q 1.248 18.646 0.624 17.606 Q 0 16.566 0 15.446 Q 0 14.326 0.624 13.286 Q 1.248 12.246 2.304 11.862 Q 1.44 12.598 0.88 13.574 Q 0.32 14.55 0.32 15.446 Q 0.32 16.342 0.88 17.318 Q 1.44 18.294 2.304 19.03 Z M 148.913 24.644 A 3.196 3.196 0 0 0 148.64 23.35 Q 148.736 24.47 148.432 25.542 Q 148.128 26.614 147.488 27.254 Q 146.848 27.862 145.76 28.134 A 6.679 6.679 0 0 1 144.134 28.335 A 6.814 6.814 0 0 1 143.552 28.31 Q 144.576 28.79 145.744 28.518 Q 146.912 28.246 147.712 27.478 Q 148.512 26.678 148.8 25.526 A 3.629 3.629 0 0 0 148.913 24.644 Z M 59.692 1.824 A 3.026 3.026 0 0 0 59.328 1.846 Q 60.352 2.07 61.232 2.662 Q 62.112 3.254 62.496 4.022 A 3.387 3.387 0 0 1 62.794 5.496 A 5.247 5.247 0 0 1 62.784 5.814 Q 62.72 6.87 62.304 7.83 Q 63.04 7.062 63.136 5.942 Q 63.232 4.822 62.752 3.862 Q 62.304 2.934 61.344 2.326 A 3.043 3.043 0 0 0 59.692 1.824 Z M 95.68 17.782 L 95.648 17.686 A 2.761 2.761 0 0 1 94.674 17.871 A 2.487 2.487 0 0 1 94.144 17.814 Q 94.624 17.75 94.976 17.51 Q 95.328 17.27 95.584 16.95 Q 95.648 15.958 96.288 15.158 Q 96.288 14.902 96.224 14.678 Q 96.352 14.838 96.416 15.03 Q 96.576 14.87 96.736 14.742 Q 96.608 14.966 96.512 15.19 Q 96.672 15.67 96.688 16.182 A 1.914 1.914 0 0 1 96.689 16.242 A 1.472 1.472 0 0 1 96.448 17.078 Q 96.384 17.174 96.32 17.238 Q 96.352 17.398 96.416 17.558 Q 96.608 18.198 97.072 18.79 Q 97.536 19.382 98.304 19.702 Q 97.472 19.67 96.688 19.126 Q 95.904 18.582 95.68 17.782 Z M 121.632 28.31 Q 121.312 29.27 120.4 29.894 Q 119.488 30.518 118.496 30.582 Q 117.472 30.614 116.512 30.086 Q 115.552 29.558 115.136 28.63 Q 115.84 29.366 116.752 29.83 A 3.562 3.562 0 0 0 118.36 30.264 A 2.594 2.594 0 0 0 118.464 30.262 Q 119.296 30.198 120.144 29.654 Q 120.992 29.11 121.632 28.31 Z M 179.264 28.31 Q 178.944 29.27 178.032 29.894 Q 177.12 30.518 176.128 30.582 Q 175.104 30.614 174.144 30.086 Q 173.184 29.558 172.768 28.63 Q 173.472 29.366 174.384 29.83 A 3.562 3.562 0 0 0 175.992 30.264 A 2.594 2.594 0 0 0 176.096 30.262 Q 176.928 30.198 177.776 29.654 Q 178.624 29.11 179.264 28.31 Z M 70.752 10.774 Q 70.976 9.782 71.824 8.998 Q 72.672 8.214 73.696 8.086 A 2.886 2.886 0 0 1 74.066 8.062 A 3.335 3.335 0 0 1 75.696 8.518 Q 76.704 9.078 77.184 9.974 Q 76.448 9.302 75.52 9.014 Q 74.592 8.726 73.76 8.822 Q 72.96 8.95 72.128 9.446 Q 71.296 9.942 70.752 10.774 Z M 133.376 10.774 Q 133.6 9.782 134.448 8.998 Q 135.296 8.214 136.32 8.086 A 2.886 2.886 0 0 1 136.69 8.062 A 3.335 3.335 0 0 1 138.32 8.518 Q 139.328 9.078 139.808 9.974 Q 139.072 9.302 138.144 9.014 Q 137.216 8.726 136.384 8.822 Q 135.584 8.95 134.752 9.446 Q 133.92 9.942 133.376 10.774 Z M 33.952 4.47 Q 34.304 3.542 35.216 2.87 Q 36.128 2.198 37.12 2.23 Q 38.112 2.23 39.008 2.902 Q 39.904 3.574 40.224 4.502 Q 39.616 3.734 38.752 3.366 Q 37.888 2.998 37.12 2.998 Q 36.32 2.966 35.456 3.334 Q 34.592 3.702 33.952 4.47 Z M 11.04 25.878 Q 10.688 26.806 9.776 27.462 A 3.022 3.022 0 0 1 7.993 28.087 A 2.677 2.677 0 0 1 7.904 28.086 Q 6.912 28.086 6.016 27.398 Q 5.12 26.71 4.8 25.814 Q 5.44 26.55 6.272 26.934 Q 7.104 27.318 7.904 27.318 Q 8.672 27.35 9.536 26.982 Q 10.4 26.614 11.04 25.878 Z M 183.808 9.91 Q 184.704 10.23 185.376 11.126 Q 186.048 12.022 186.048 12.982 Q 186.048 13.942 185.376 14.838 Q 184.704 15.734 183.808 16.054 Q 184.544 15.446 184.912 14.598 Q 185.28 13.75 185.28 12.982 Q 185.28 12.214 184.912 11.366 Q 184.544 10.518 183.808 9.91 Z M 4.704 25.27 Q 3.808 24.95 3.152 24.054 Q 2.496 23.158 2.496 22.198 Q 2.496 21.238 3.152 20.358 Q 3.808 19.478 4.704 19.158 Q 3.968 19.766 3.616 20.598 Q 3.264 21.43 3.264 22.198 Q 3.264 22.966 3.616 23.814 Q 3.968 24.662 4.704 25.27 Z M 62.944 25.91 Q 62.56 26.774 61.648 27.382 Q 60.736 27.99 59.776 27.926 Q 58.816 27.862 57.984 27.158 Q 57.152 26.454 56.864 25.526 Q 57.44 26.294 58.24 26.71 Q 59.04 27.126 59.808 27.158 Q 60.576 27.19 61.424 26.902 Q 62.272 26.614 62.944 25.91 Z M 26.304 23.35 Q 26.848 24.118 26.816 25.126 Q 26.784 26.134 26.272 26.902 Q 25.76 27.702 24.848 28.118 Q 23.936 28.534 23.008 28.31 Q 23.936 28.214 24.768 27.782 Q 25.6 27.35 26.016 26.742 Q 26.432 26.102 26.496 25.174 Q 26.56 24.246 26.304 23.35 Z M 28.608 7.894 Q 28.384 6.998 28.72 5.99 Q 29.056 4.982 29.824 4.47 A 2.705 2.705 0 0 1 31.429 3.983 A 3.622 3.622 0 0 1 31.648 3.99 Q 32.704 4.054 33.472 4.566 A 4.232 4.232 0 0 0 32.443 4.435 A 3.848 3.848 0 0 0 31.728 4.502 Q 30.88 4.662 30.272 5.078 Q 29.632 5.494 29.168 6.23 Q 28.704 6.966 28.608 7.894 Z M 119.712 4.182 Q 120.032 3.318 120.848 2.694 Q 121.664 2.07 122.56 2.07 Q 123.456 2.07 124.272 2.694 Q 125.088 3.318 125.408 4.15 Q 124.832 3.478 124.064 3.158 Q 123.296 2.838 122.56 2.838 Q 121.856 2.838 121.072 3.158 Q 120.288 3.478 119.712 4.182 Z M 177.344 4.182 Q 177.664 3.318 178.48 2.694 Q 179.296 2.07 180.192 2.07 Q 181.088 2.07 181.904 2.694 Q 182.72 3.318 183.04 4.15 Q 182.464 3.478 181.696 3.158 Q 180.928 2.838 180.192 2.838 Q 179.488 2.838 178.704 3.158 Q 177.92 3.478 177.344 4.182 Z M 5.344 4.47 Q 5.696 3.67 6.56 3.094 Q 7.424 2.518 8.288 2.582 Q 9.184 2.646 9.952 3.334 Q 10.72 4.022 10.976 4.854 Q 10.432 4.15 9.696 3.782 Q 8.96 3.414 8.256 3.35 A 3.471 3.471 0 0 0 8.098 3.346 A 4.422 4.422 0 0 0 6.752 3.574 Q 5.952 3.83 5.344 4.47 Z M 40.576 25.91 Q 40.32 26.742 39.536 27.382 Q 38.752 28.022 37.888 28.054 A 2.39 2.39 0 0 1 37.8 28.055 A 2.681 2.681 0 0 1 36.208 27.494 Q 35.392 26.902 35.04 26.102 Q 35.648 26.742 36.4 27.03 Q 37.152 27.318 37.856 27.286 Q 38.56 27.254 39.312 26.918 Q 40.064 26.582 40.576 25.91 Z M 183.808 16.438 Q 184.608 16.726 185.232 17.526 Q 185.856 18.326 185.856 19.19 Q 185.856 20.054 185.232 20.854 Q 184.608 21.654 183.808 21.942 Q 184.48 21.398 184.784 20.646 Q 185.088 19.894 185.088 19.19 Q 185.088 18.486 184.784 17.734 Q 184.48 16.982 183.808 16.438 Z M 17.344 10.166 Q 16.544 9.878 15.936 9.078 Q 15.328 8.278 15.328 7.414 Q 15.328 6.55 15.952 5.766 Q 16.576 4.982 17.376 4.694 Q 16.704 5.238 16.4 5.99 Q 16.096 6.742 16.096 7.446 Q 16.096 8.118 16.384 8.87 Q 16.672 9.622 17.344 10.166 Z M 12.8 18.198 Q 12.896 18.454 12.928 18.806 L 13.056 18.614 Q 12.896 19.222 13.056 19.782 Q 13.216 20.342 13.504 20.758 Q 13.76 21.206 14.208 21.574 Q 14.656 21.942 15.296 22.006 A 2.081 2.081 0 0 1 14.764 22.072 A 2.906 2.906 0 0 1 13.936 21.942 Q 13.184 21.718 12.832 21.206 Q 12.64 20.886 12.592 20.502 Q 12.544 20.118 12.608 19.734 A 0.905 0.905 0 0 1 12.119 19.857 A 1.603 1.603 0 0 1 11.936 19.846 Q 11.52 19.798 11.264 19.67 A 0.838 0.838 0 0 0 11.347 19.674 A 0.604 0.604 0 0 0 11.792 19.494 L 12.192 19.094 Q 12.384 18.934 12.592 18.726 Q 12.8 18.518 12.8 18.198 Z M 76.608 24.406 Q 76.576 25.27 76.048 26.086 Q 75.52 26.902 74.72 27.19 A 2.38 2.38 0 0 1 73.908 27.33 A 3.036 3.036 0 0 1 72.976 27.174 Q 72.032 26.87 71.488 26.198 Q 72.224 26.646 73.024 26.678 Q 73.824 26.71 74.464 26.486 Q 75.104 26.262 75.696 25.734 Q 76.288 25.206 76.608 24.406 Z M 139.232 24.406 Q 139.2 25.27 138.672 26.086 Q 138.144 26.902 137.344 27.19 A 2.38 2.38 0 0 1 136.532 27.33 A 3.036 3.036 0 0 1 135.6 27.174 Q 134.656 26.87 134.112 26.198 Q 134.848 26.646 135.648 26.678 Q 136.448 26.71 137.088 26.486 Q 137.728 26.262 138.32 25.734 Q 138.912 25.206 139.232 24.406 Z M 67.04 23.702 Q 66.336 23.254 65.904 22.358 A 2.922 2.922 0 0 1 65.589 21.084 A 2.401 2.401 0 0 1 65.632 20.63 Q 65.824 19.798 66.576 19.142 Q 67.328 18.486 68.16 18.39 Q 67.424 18.774 66.976 19.446 Q 66.528 20.118 66.4 20.79 A 3.178 3.178 0 0 0 66.316 21.528 A 3.971 3.971 0 0 0 66.384 22.246 Q 66.528 23.03 67.04 23.702 Z M 98.688 28.31 Q 98.4 29.11 97.616 29.606 Q 96.832 30.102 95.968 30.102 Q 95.104 30.102 94.32 29.606 Q 93.536 29.11 93.248 28.31 Q 93.792 28.95 94.544 29.366 Q 95.296 29.782 95.968 29.782 Q 96.64 29.782 97.392 29.366 Q 98.144 28.95 98.688 28.31 Z M 103.648 25.91 Q 103.296 26.678 102.464 27.206 A 2.61 2.61 0 0 1 101.056 27.653 A 2.232 2.232 0 0 1 100.8 27.638 Q 99.936 27.574 99.232 26.902 Q 98.528 26.23 98.304 25.398 Q 98.784 26.102 99.488 26.454 Q 100.192 26.806 100.864 26.87 A 3.381 3.381 0 0 0 101.185 26.885 A 4.136 4.136 0 0 0 102.288 26.726 Q 103.04 26.518 103.648 25.91 Z M 40.736 4.63 Q 41.408 4.118 42.368 3.99 A 3.144 3.144 0 0 1 42.784 3.961 A 2.414 2.414 0 0 1 44.064 4.31 Q 44.768 4.758 45.12 5.67 Q 45.472 6.582 45.312 7.382 Q 45.184 6.55 44.704 5.942 Q 44.224 5.334 43.648 4.982 Q 43.072 4.63 42.304 4.502 Q 41.536 4.374 40.736 4.63 Z M 11.264 20.182 Q 12.032 20.438 12.624 21.206 Q 13.216 21.974 13.216 22.774 Q 13.216 23.606 12.624 24.358 Q 12.032 25.11 11.264 25.398 Q 11.904 24.854 12.176 24.15 Q 12.448 23.446 12.448 22.774 Q 12.448 22.134 12.176 21.414 Q 11.904 20.694 11.264 20.182 Z M 125.952 4.182 Q 126.72 4.438 127.344 5.158 Q 127.968 5.878 128 6.71 A 2.222 2.222 0 0 1 128.002 6.799 A 2.603 2.603 0 0 1 127.488 8.294 Q 126.944 9.078 126.176 9.398 Q 126.784 8.854 127.024 8.118 A 3.955 3.955 0 0 0 127.236 6.894 A 3.042 3.042 0 0 0 127.232 6.742 Q 127.2 6.07 126.896 5.382 Q 126.592 4.694 125.952 4.182 Z M 183.584 4.182 Q 184.352 4.438 184.976 5.158 Q 185.6 5.878 185.632 6.71 A 2.222 2.222 0 0 1 185.634 6.799 A 2.603 2.603 0 0 1 185.12 8.294 Q 184.576 9.078 183.808 9.398 Q 184.416 8.854 184.656 8.118 A 3.955 3.955 0 0 0 184.868 6.894 A 3.042 3.042 0 0 0 184.864 6.742 Q 184.832 6.07 184.528 5.382 Q 184.224 4.694 183.584 4.182 Z M 54.208 4.15 Q 54.688 3.51 55.552 3.174 A 2.614 2.614 0 0 1 56.502 2.983 A 2.143 2.143 0 0 1 57.184 3.094 Q 57.952 3.318 58.48 4.102 Q 59.008 4.886 59.04 5.686 Q 58.72 4.95 58.144 4.486 Q 57.568 4.022 56.96 3.83 Q 56.352 3.638 55.616 3.686 Q 54.88 3.734 54.208 4.15 Z M 16.416 10.806 L 16.48 10.902 Q 16.928 10.71 17.344 10.678 Q 16.896 10.87 16.608 11.318 A 2.138 2.138 0 0 1 16.649 11.738 A 2.491 2.491 0 0 1 16.576 12.326 Q 16.448 12.854 16.192 13.238 Q 16.224 13.494 16.384 13.75 Q 15.968 13.43 15.696 12.854 A 1.613 1.613 0 0 1 15.525 12.167 A 1.158 1.158 0 0 1 15.584 11.798 Q 15.648 11.574 15.84 11.35 L 15.776 11.222 Q 15.52 10.806 15.104 10.422 Q 14.688 10.038 14.08 9.942 Q 14.688 9.846 15.392 10.07 Q 16.096 10.294 16.416 10.806 Z M 158.048 11.35 Q 158.144 10.582 158.72 9.862 Q 159.296 9.142 160.064 8.95 A 2.236 2.236 0 0 1 160.521 8.903 A 2.718 2.718 0 0 1 161.664 9.174 Q 162.496 9.558 162.912 10.23 Q 162.272 9.75 161.552 9.654 Q 160.832 9.558 160.224 9.718 Q 159.616 9.846 159.008 10.246 Q 158.4 10.646 158.048 11.35 Z M 34.528 26.038 Q 34.048 26.646 33.168 26.95 A 2.795 2.795 0 0 1 32.255 27.115 A 2.125 2.125 0 0 1 31.552 26.998 Q 30.816 26.71 30.336 25.942 Q 29.856 25.174 29.824 24.374 Q 30.112 25.11 30.672 25.574 Q 31.232 26.038 31.808 26.262 Q 32.416 26.454 33.136 26.454 Q 33.856 26.454 34.528 26.038 Z M 11.753 5.248 A 2.547 2.547 0 0 0 11.232 5.302 Q 12 5.43 12.576 5.878 Q 13.152 6.326 13.472 6.838 Q 13.792 7.382 13.92 8.086 A 2.88 2.88 0 0 1 13.967 8.602 A 3.161 3.161 0 0 1 13.824 9.526 Q 14.304 8.918 14.416 8.006 A 3.074 3.074 0 0 0 14.44 7.631 A 2.112 2.112 0 0 0 14.112 6.454 Q 13.696 5.782 12.848 5.462 A 3.094 3.094 0 0 0 11.753 5.248 Z M 115.136 28.63 Q 114.72 29.27 113.92 29.574 A 2.864 2.864 0 0 1 112.899 29.773 A 2.418 2.418 0 0 1 112.384 29.718 Q 111.616 29.558 111.008 28.95 Q 110.4 28.342 110.304 27.574 Q 110.656 28.278 111.248 28.774 Q 111.84 29.27 112.448 29.398 A 2.333 2.333 0 0 0 112.93 29.447 A 3.174 3.174 0 0 0 113.792 29.318 Q 114.528 29.11 115.136 28.63 Z M 172.768 28.63 Q 172.352 29.27 171.552 29.574 A 2.864 2.864 0 0 1 170.531 29.773 A 2.418 2.418 0 0 1 170.016 29.718 Q 169.248 29.558 168.64 28.95 Q 168.032 28.342 167.936 27.574 Q 168.288 28.278 168.88 28.774 Q 169.472 29.27 170.08 29.398 A 2.333 2.333 0 0 0 170.562 29.447 A 3.174 3.174 0 0 0 171.424 29.318 Q 172.16 29.11 172.768 28.63 Z M 17.856 4.47 Q 18.112 3.734 18.816 3.174 Q 19.52 2.614 20.32 2.614 Q 21.088 2.614 21.792 3.174 Q 22.496 3.734 22.752 4.47 Q 22.272 3.862 21.6 3.622 Q 20.928 3.382 20.32 3.382 Q 19.68 3.382 19.008 3.622 Q 18.336 3.862 17.856 4.47 Z M 17.957 26.197 A 2.81 2.81 0 0 0 19.232 25.91 Q 18.464 26.006 17.808 25.718 Q 17.152 25.43 16.704 25.014 Q 16.224 24.598 15.92 23.958 A 2.905 2.905 0 0 1 15.645 22.695 A 3.486 3.486 0 0 1 15.648 22.55 Q 15.36 23.254 15.472 24.15 Q 15.584 25.046 16.16 25.558 Q 16.736 26.102 17.632 26.182 A 3.657 3.657 0 0 0 17.957 26.197 Z M 4.704 9.462 Q 4 9.174 3.456 8.454 Q 2.912 7.734 2.912 6.966 Q 2.944 6.198 3.52 5.51 Q 4.096 4.822 4.8 4.566 Q 4.224 5.046 3.952 5.702 Q 3.68 6.358 3.68 6.998 Q 3.68 7.606 3.904 8.278 Q 4.128 8.95 4.704 9.462 Z M 29.211 24.094 A 2.278 2.278 0 0 0 29.408 24.086 Q 28.672 23.862 28.192 23.366 Q 27.712 22.87 27.456 22.326 Q 27.2 21.75 27.152 21.046 A 2.691 2.691 0 0 1 27.146 20.863 A 2.747 2.747 0 0 1 27.424 19.67 Q 26.88 20.214 26.656 21.078 A 2.706 2.706 0 0 0 26.564 21.757 A 1.968 1.968 0 0 0 26.752 22.614 Q 27.072 23.318 27.872 23.734 A 2.898 2.898 0 0 0 29.211 24.094 Z M 23.904 16.086 Q 24.608 16.342 25.168 17.046 Q 25.728 17.75 25.728 18.518 Q 25.728 19.286 25.168 19.974 Q 24.608 20.662 23.904 20.918 Q 24.48 20.438 24.72 19.782 Q 24.96 19.126 24.96 18.518 Q 24.96 17.91 24.72 17.238 Q 24.48 16.566 23.904 16.086 Z M 30.44 17.016 A 2.669 2.669 0 0 0 31.84 16.662 A 2.799 2.799 0 0 1 31.36 16.704 A 2.39 2.39 0 0 1 30.464 16.534 Q 29.824 16.278 29.344 15.894 Q 28.896 15.51 28.56 14.902 Q 28.224 14.294 28.256 13.526 A 2.558 2.558 0 0 0 28.071 14.504 A 3.388 3.388 0 0 0 28.128 15.11 Q 28.288 15.99 28.864 16.47 Q 29.408 16.982 30.304 17.014 A 3.82 3.82 0 0 0 30.44 17.016 Z M 151.635 25.918 A 2.469 2.469 0 0 0 151.84 25.91 Q 151.104 25.686 150.64 25.19 Q 150.176 24.694 149.92 24.15 Q 149.696 23.606 149.648 22.918 A 2.566 2.566 0 0 1 149.642 22.739 A 2.541 2.541 0 0 1 149.92 21.59 Q 149.376 22.102 149.152 22.95 Q 148.928 23.798 149.216 24.47 Q 149.504 25.142 150.288 25.558 A 2.856 2.856 0 0 0 151.635 25.918 Z M 28.064 13.046 Q 27.36 12.758 26.864 12.038 Q 26.368 11.318 26.4 10.582 Q 26.464 9.846 27.056 9.19 Q 27.648 8.534 28.352 8.342 Q 27.744 8.79 27.472 9.414 Q 27.2 10.038 27.168 10.646 Q 27.136 11.222 27.328 11.878 Q 27.52 12.534 28.064 13.046 Z M 59.04 8.598 Q 59.52 8.022 60.352 7.75 A 2.623 2.623 0 0 1 61.167 7.61 A 1.92 1.92 0 0 1 61.856 7.734 Q 62.56 7.99 62.992 8.742 Q 63.424 9.494 63.424 10.23 Q 63.168 9.526 62.656 9.094 Q 62.144 8.662 61.6 8.438 Q 61.024 8.246 60.352 8.23 Q 59.68 8.214 59.04 8.598 Z M 98.304 24.886 Q 97.6 24.63 97.056 23.958 Q 96.512 23.286 96.512 22.55 Q 96.512 21.814 97.056 21.142 Q 97.6 20.47 98.304 20.214 Q 97.728 20.694 97.504 21.334 Q 97.28 21.974 97.28 22.55 Q 97.28 23.126 97.504 23.766 Q 97.728 24.406 98.304 24.886 Z M 158.464 16.054 Q 159.008 16.534 159.264 17.35 Q 159.52 18.166 159.264 18.838 Q 158.976 19.51 158.24 19.91 Q 157.504 20.31 156.768 20.31 Q 157.44 20.086 157.888 19.59 Q 158.336 19.094 158.528 18.55 Q 158.752 18.006 158.784 17.35 A 2.241 2.241 0 0 0 158.787 17.241 A 2.439 2.439 0 0 0 158.464 16.054 Z M 156.768 25.142 Q 156.64 25.846 156.096 26.486 Q 155.552 27.126 154.848 27.222 Q 154.144 27.35 153.408 26.934 Q 152.672 26.518 152.32 25.91 Q 152.864 26.358 153.504 26.47 A 3.888 3.888 0 0 0 154.175 26.53 A 3.312 3.312 0 0 0 154.72 26.486 Q 155.264 26.39 155.84 26.07 Q 156.416 25.75 156.768 25.142 Z M 94.144 18.326 Q 94.784 18.55 95.328 19.19 Q 95.872 19.83 95.872 20.534 Q 95.872 21.238 95.328 21.878 Q 94.784 22.518 94.144 22.742 Q 94.688 22.294 94.896 21.686 Q 95.104 21.078 95.104 20.534 Q 95.104 19.958 94.896 19.366 Q 94.688 18.774 94.144 18.326 Z M 52.672 8.47 Q 52.096 8.086 51.728 7.334 A 2.294 2.294 0 0 1 51.472 6.324 A 1.784 1.784 0 0 1 51.52 5.91 Q 51.68 5.238 52.336 4.742 Q 52.992 4.246 53.696 4.15 Q 53.056 4.47 52.72 5.014 Q 52.384 5.558 52.256 6.102 A 3.044 3.044 0 0 0 52.171 6.841 A 4.147 4.147 0 0 0 52.192 7.254 Q 52.256 7.894 52.672 8.47 Z M 149.92 11.894 Q 149.888 11.19 150.288 10.47 Q 150.688 9.75 151.328 9.494 Q 151.968 9.206 152.752 9.462 Q 153.536 9.718 153.984 10.23 A 2.379 2.379 0 0 0 152.865 9.939 A 2.212 2.212 0 0 0 152.752 9.942 Q 152.128 9.974 151.616 10.198 Q 151.104 10.39 150.624 10.806 Q 150.144 11.222 149.92 11.894 Z M 4.704 18.646 Q 4.064 18.39 3.536 17.766 Q 3.008 17.142 3.008 16.47 Q 3.008 15.798 3.536 15.158 Q 4.064 14.518 4.704 14.294 Q 4.192 14.742 3.984 15.334 Q 3.776 15.926 3.776 16.47 Q 3.776 17.014 3.984 17.606 Q 4.192 18.198 4.704 18.646 Z M 53.184 22.55 Q 52.544 22.39 51.952 21.83 Q 51.36 21.27 51.264 20.598 A 1.679 1.679 0 0 1 51.247 20.36 A 2.049 2.049 0 0 1 51.616 19.238 Q 52.064 18.55 52.672 18.262 Q 52.192 18.742 52.08 19.35 A 4.127 4.127 0 0 0 52.009 20.098 A 3.456 3.456 0 0 0 52.032 20.502 Q 52.096 21.046 52.368 21.606 Q 52.64 22.166 53.184 22.55 Z M 163.296 15.99 Q 163.072 16.63 162.448 17.142 Q 161.824 17.654 161.152 17.654 Q 160.48 17.654 159.856 17.142 Q 159.232 16.63 159.008 15.99 Q 159.424 16.502 160.016 16.694 Q 160.608 16.886 161.152 16.886 Q 161.696 16.886 162.272 16.694 Q 162.848 16.502 163.296 15.99 Z M 70.976 26.134 Q 70.496 26.582 69.728 26.742 A 2.406 2.406 0 0 1 69.237 26.795 A 1.727 1.727 0 0 1 68.384 26.582 Q 67.808 26.262 67.52 25.526 Q 67.232 24.79 67.328 24.15 Q 67.456 24.79 67.872 25.222 Q 68.288 25.654 68.768 25.91 Q 69.216 26.166 69.792 26.278 A 1.848 1.848 0 0 0 70.146 26.312 A 2.13 2.13 0 0 0 70.976 26.134 Z M 133.6 26.134 Q 133.12 26.582 132.352 26.742 A 2.406 2.406 0 0 1 131.861 26.795 A 1.727 1.727 0 0 1 131.008 26.582 Q 130.432 26.262 130.144 25.526 Q 129.856 24.79 129.952 24.15 Q 130.08 24.79 130.496 25.222 Q 130.912 25.654 131.392 25.91 Q 131.84 26.166 132.416 26.278 A 1.848 1.848 0 0 0 132.77 26.312 A 2.13 2.13 0 0 0 133.6 26.134 Z M 98.4 9.974 Q 98.752 9.43 99.424 9.03 A 1.948 1.948 0 0 1 100.424 8.727 A 1.588 1.588 0 0 1 100.736 8.758 Q 101.376 8.886 101.872 9.494 Q 102.368 10.102 102.496 10.742 Q 102.144 10.166 101.632 9.894 Q 101.12 9.622 100.608 9.526 Q 100.096 9.43 99.504 9.494 Q 98.912 9.558 98.4 9.974 Z M 49.664 14.87 Q 49.024 14.71 48.464 14.15 Q 47.904 13.59 47.84 12.95 A 1.558 1.558 0 0 1 47.832 12.795 A 1.909 1.909 0 0 1 48.24 11.67 Q 48.704 11.03 49.28 10.742 Q 48.832 11.19 48.704 11.782 Q 48.576 12.374 48.608 12.886 Q 48.672 13.398 48.896 13.942 Q 49.12 14.486 49.664 14.87 Z M 183.808 22.454 Q 184.192 22.966 184.288 23.75 A 2.675 2.675 0 0 1 184.309 24.075 A 1.805 1.805 0 0 1 184.032 25.078 Q 183.68 25.622 182.928 25.846 A 2.939 2.939 0 0 1 182.089 25.976 A 2.271 2.271 0 0 1 181.536 25.91 Q 182.176 25.846 182.64 25.462 Q 183.104 25.078 183.392 24.662 Q 183.68 24.214 183.84 23.654 A 1.904 1.904 0 0 0 183.913 23.128 A 2.343 2.343 0 0 0 183.808 22.454 Z M 168.204 25.336 A 2.081 2.081 0 0 0 168.736 25.27 Q 168.096 25.206 167.632 24.838 Q 167.168 24.47 166.88 24.022 Q 166.592 23.574 166.432 23.014 Q 166.272 22.454 166.432 21.814 Q 166.048 22.358 165.968 23.126 A 2.672 2.672 0 0 0 165.953 23.403 A 1.863 1.863 0 0 0 166.24 24.438 Q 166.624 24.982 167.376 25.206 A 2.906 2.906 0 0 0 168.204 25.336 Z M 23.904 21.43 Q 24.512 21.654 25.008 22.246 Q 25.504 22.838 25.504 23.478 Q 25.504 24.118 25.008 24.71 Q 24.512 25.302 23.904 25.526 Q 24.384 25.11 24.56 24.55 Q 24.736 23.99 24.736 23.478 Q 24.736 22.966 24.56 22.406 Q 24.384 21.846 23.904 21.43 Z M 77.696 10.038 Q 78.112 9.558 78.832 9.302 A 2.346 2.346 0 0 1 79.618 9.156 A 1.788 1.788 0 0 1 80.16 9.238 Q 80.768 9.462 81.136 10.15 Q 81.504 10.838 81.504 11.478 Q 81.28 10.87 80.816 10.518 Q 80.352 10.166 79.872 9.974 Q 79.392 9.782 78.816 9.75 A 1.883 1.883 0 0 0 78.712 9.747 A 1.979 1.979 0 0 0 77.696 10.038 Z M 140.32 10.038 Q 140.736 9.558 141.456 9.302 A 2.346 2.346 0 0 1 142.242 9.156 A 1.788 1.788 0 0 1 142.784 9.238 Q 143.392 9.462 143.76 10.15 Q 144.128 10.838 144.128 11.478 Q 143.904 10.87 143.44 10.518 Q 142.976 10.166 142.496 9.974 Q 142.016 9.782 141.44 9.75 A 1.883 1.883 0 0 0 141.336 9.747 A 1.979 1.979 0 0 0 140.32 10.038 Z M 149.92 16.47 Q 149.312 16.246 148.816 15.67 Q 148.32 15.094 148.32 14.422 Q 148.32 13.782 148.816 13.206 Q 149.312 12.63 149.92 12.406 Q 149.44 12.822 149.264 13.366 A 3.422 3.422 0 0 0 149.088 14.422 Q 149.088 14.966 149.264 15.51 Q 149.44 16.054 149.92 16.47 Z M 47.232 20.534 Q 47.616 21.046 47.712 21.814 A 2.75 2.75 0 0 1 47.734 22.155 A 1.736 1.736 0 0 1 47.488 23.094 Q 47.136 23.638 46.4 23.862 A 2.834 2.834 0 0 1 45.574 23.992 A 2.259 2.259 0 0 1 45.024 23.926 Q 45.664 23.862 46.112 23.494 Q 46.56 23.126 46.816 22.678 Q 47.104 22.262 47.264 21.702 A 1.88 1.88 0 0 0 47.337 21.183 A 2.148 2.148 0 0 0 47.232 20.534 Z M 119.619 24.764 A 1.936 1.936 0 0 0 119.616 24.662 Q 119.424 25.238 118.976 25.606 Q 118.528 25.974 118.08 26.134 Q 117.6 26.326 117.04 26.39 A 1.639 1.639 0 0 1 116.854 26.4 A 1.793 1.793 0 0 1 115.936 26.134 Q 116.352 26.614 117.072 26.854 A 2.235 2.235 0 0 0 117.778 26.978 A 1.613 1.613 0 0 0 118.368 26.87 Q 118.944 26.614 119.296 25.942 A 2.542 2.542 0 0 0 119.619 24.764 Z M 177.251 24.764 A 1.936 1.936 0 0 0 177.248 24.662 Q 177.056 25.238 176.608 25.606 Q 176.16 25.974 175.712 26.134 Q 175.232 26.326 174.672 26.39 A 1.639 1.639 0 0 1 174.486 26.4 A 1.793 1.793 0 0 1 173.568 26.134 Q 173.984 26.614 174.704 26.854 A 2.235 2.235 0 0 0 175.41 26.978 A 1.613 1.613 0 0 0 176 26.87 Q 176.576 26.614 176.928 25.942 A 2.542 2.542 0 0 0 177.251 24.764 Z M 89.344 10.23 Q 89.536 9.654 90.112 9.158 Q 90.688 8.662 91.296 8.662 Q 91.936 8.662 92.496 9.158 Q 93.056 9.654 93.28 10.23 Q 92.896 9.75 92.352 9.59 Q 91.808 9.43 91.296 9.43 Q 90.816 9.43 90.272 9.59 Q 89.728 9.75 89.344 10.23 Z M 59.04 17.11 Q 59.648 17.142 60.288 17.526 Q 60.928 17.91 61.12 18.518 Q 61.312 19.094 61.024 19.782 Q 60.736 20.47 60.256 20.854 A 1.894 1.894 0 0 0 60.561 19.835 A 1.863 1.863 0 0 0 60.56 19.782 Q 60.544 19.222 60.416 18.742 Q 60.256 18.262 59.936 17.814 Q 59.616 17.366 59.04 17.11 Z M 115.392 26.198 Q 115.104 26.742 114.464 27.126 Q 113.824 27.51 113.216 27.414 Q 112.608 27.286 112.144 26.71 Q 111.68 26.134 111.552 25.526 Q 111.872 26.07 112.368 26.31 Q 112.864 26.55 113.344 26.646 Q 113.824 26.742 114.384 26.678 Q 114.944 26.614 115.392 26.198 Z M 173.024 26.198 Q 172.736 26.742 172.096 27.126 Q 171.456 27.51 170.848 27.414 Q 170.24 27.286 169.776 26.71 Q 169.312 26.134 169.184 25.526 Q 169.504 26.07 170 26.31 Q 170.496 26.55 170.976 26.646 Q 171.456 26.742 172.016 26.678 Q 172.576 26.614 173.024 26.198 Z M 83.811 24.192 A 2.363 2.363 0 0 0 83.616 23.222 A 2.408 2.408 0 0 1 83.619 23.348 A 1.916 1.916 0 0 1 83.376 24.31 Q 83.104 24.79 82.752 25.142 Q 82.4 25.462 81.904 25.718 Q 81.408 25.974 80.8 25.91 A 2.803 2.803 0 0 0 81.95 26.137 A 3.72 3.72 0 0 0 82.112 26.134 Q 82.848 26.102 83.296 25.686 Q 83.712 25.27 83.792 24.534 A 3.159 3.159 0 0 0 83.811 24.192 Z M 146.435 24.192 A 2.363 2.363 0 0 0 146.24 23.222 A 2.408 2.408 0 0 1 146.243 23.348 A 1.916 1.916 0 0 1 146 24.31 Q 145.728 24.79 145.376 25.142 Q 145.024 25.462 144.528 25.718 Q 144.032 25.974 143.424 25.91 A 2.803 2.803 0 0 0 144.574 26.137 A 3.72 3.72 0 0 0 144.736 26.134 Q 145.472 26.102 145.92 25.686 Q 146.336 25.27 146.416 24.534 A 3.159 3.159 0 0 0 146.435 24.192 Z M 75.104 22.39 Q 74.976 22.326 74.88 22.262 Q 74.752 22.358 74.592 22.454 Q 74.72 22.326 74.784 22.166 Q 74.4 21.91 74.144 21.494 A 1.365 1.365 0 0 1 73.916 20.78 A 1.032 1.032 0 0 1 73.92 20.694 Q 73.952 20.214 74.432 19.798 Q 74.304 19.638 74.112 19.542 Q 74.336 19.574 74.56 19.67 Q 74.944 19.35 75.392 19.222 Q 75.04 19.446 74.88 19.862 Q 75.168 20.022 75.376 20.262 Q 75.584 20.502 75.616 20.79 A 0.934 0.934 0 0 1 75.631 20.957 A 1.192 1.192 0 0 1 75.472 21.526 Q 75.264 21.91 74.944 22.198 Q 75.008 22.294 75.104 22.39 Z M 137.728 22.39 Q 137.6 22.326 137.504 22.262 Q 137.376 22.358 137.216 22.454 Q 137.344 22.326 137.408 22.166 Q 137.024 21.91 136.768 21.494 A 1.365 1.365 0 0 1 136.54 20.78 A 1.032 1.032 0 0 1 136.544 20.694 Q 136.576 20.214 137.056 19.798 Q 136.928 19.638 136.736 19.542 Q 136.96 19.574 137.184 19.67 Q 137.568 19.35 138.016 19.222 Q 137.664 19.446 137.504 19.862 Q 137.792 20.022 138 20.262 Q 138.208 20.502 138.24 20.79 A 0.934 0.934 0 0 1 138.255 20.957 A 1.192 1.192 0 0 1 138.096 21.526 Q 137.888 21.91 137.568 22.198 Q 137.632 22.294 137.728 22.39 Z M 111.52 10.678 Q 111.616 10.07 112.064 9.494 Q 112.512 8.918 113.12 8.79 A 1.53 1.53 0 0 1 113.436 8.757 A 1.863 1.863 0 0 1 114.368 9.03 Q 115.008 9.398 115.328 9.942 Q 114.848 9.558 114.304 9.51 Q 113.76 9.462 113.28 9.558 Q 112.8 9.654 112.32 9.91 Q 111.84 10.166 111.52 10.678 Z M 169.152 10.678 Q 169.248 10.07 169.696 9.494 Q 170.144 8.918 170.752 8.79 A 1.53 1.53 0 0 1 171.068 8.757 A 1.863 1.863 0 0 1 172 9.03 Q 172.64 9.398 172.96 9.942 Q 172.48 9.558 171.936 9.51 Q 171.392 9.462 170.912 9.558 Q 170.432 9.654 169.952 9.91 Q 169.472 10.166 169.152 10.678 Z M 44.611 24.362 A 2.214 2.214 0 0 0 44.608 24.246 Q 44.448 24.822 44.032 25.174 Q 43.616 25.526 43.168 25.718 Q 42.72 25.91 42.176 25.99 A 1.624 1.624 0 0 1 41.939 26.007 A 1.806 1.806 0 0 1 41.088 25.782 Q 41.504 26.23 42.208 26.454 A 2.054 2.054 0 0 0 42.83 26.558 A 1.451 1.451 0 0 0 43.456 26.422 Q 44.032 26.198 44.336 25.526 A 2.822 2.822 0 0 0 44.611 24.362 Z M 105.184 22.198 Q 105.664 22.55 105.984 23.206 A 1.939 1.939 0 0 1 106.197 24.059 A 1.607 1.607 0 0 1 106.144 24.47 Q 105.984 25.046 105.376 25.446 Q 104.768 25.846 104.16 25.91 Q 104.704 25.654 104.992 25.19 Q 105.28 24.726 105.408 24.246 Q 105.536 23.798 105.536 23.254 Q 105.536 22.71 105.184 22.198 Z M 4.704 13.782 Q 4.128 13.59 3.648 13.03 Q 3.168 12.47 3.168 11.862 Q 3.168 11.254 3.648 10.71 Q 4.128 10.166 4.704 9.974 Q 4.256 10.358 4.096 10.87 Q 3.936 11.382 3.936 11.862 Q 3.936 12.342 4.096 12.87 Q 4.256 13.398 4.704 13.782 Z M 156.768 20.822 Q 157.344 21.014 157.824 21.574 Q 158.304 22.134 158.304 22.71 Q 158.304 23.318 157.824 23.878 Q 157.344 24.438 156.768 24.63 Q 157.216 24.246 157.376 23.718 Q 157.536 23.19 157.536 22.71 Q 157.536 22.23 157.376 21.718 Q 157.216 21.206 156.768 20.822 Z M 23.52 25.91 Q 23.328 26.486 22.768 26.966 Q 22.208 27.446 21.632 27.446 Q 21.024 27.446 20.48 26.966 Q 19.936 26.486 19.744 25.91 Q 20.096 26.358 20.624 26.518 Q 21.152 26.678 21.632 26.678 Q 22.112 26.678 22.624 26.518 Q 23.136 26.358 23.52 25.91 Z M 90.976 25.91 Q 90.656 26.422 90 26.758 A 1.869 1.869 0 0 1 89.148 26.985 A 1.413 1.413 0 0 1 88.768 26.934 Q 88.192 26.806 87.776 26.214 Q 87.36 25.622 87.296 25.014 Q 87.552 25.558 88.016 25.814 Q 88.48 26.07 88.96 26.198 A 4.004 4.004 0 0 0 89.799 26.28 A 5.221 5.221 0 0 0 89.952 26.278 Q 90.496 26.262 90.976 25.91 Z M 56.384 25.398 Q 55.872 25.686 55.136 25.718 A 2.778 2.778 0 0 1 55.015 25.72 A 1.67 1.67 0 0 1 53.952 25.398 Q 53.472 25.014 53.344 24.294 Q 53.216 23.574 53.408 23.03 Q 53.44 23.606 53.744 24.054 Q 54.048 24.502 54.432 24.79 Q 54.784 25.078 55.28 25.286 A 1.871 1.871 0 0 0 56.011 25.428 A 2.39 2.39 0 0 0 56.384 25.398 Z M 94.36 24.295 A 2.417 2.417 0 0 0 94.144 23.254 A 1.95 1.95 0 0 1 94.156 23.469 A 1.601 1.601 0 0 1 93.936 24.294 Q 93.664 24.758 93.344 25.11 Q 92.992 25.43 92.528 25.702 A 1.601 1.601 0 0 1 91.703 25.922 A 1.95 1.95 0 0 1 91.488 25.91 A 2.417 2.417 0 0 0 92.529 26.125 A 3.352 3.352 0 0 0 92.752 26.118 Q 93.472 26.07 93.888 25.654 Q 94.304 25.238 94.352 24.518 A 3.352 3.352 0 0 0 94.36 24.295 Z M 167.103 11.241 A 7.643 7.643 0 0 0 166.038 9.75 A 5.906 5.906 0 0 0 164.688 10.486 A 3.678 3.678 0 0 0 163.964 11.13 A 2.955 2.955 0 0 1 164.896 11.91 A 2.148 2.148 0 0 1 165.39 12.876 A 2.757 2.757 0 0 1 165.472 12.694 Q 165.888 11.862 166.848 11.366 A 3.437 3.437 0 0 1 167.103 11.241 Z M 87.296 13.558 Q 86.88 13.142 86.672 12.47 Q 86.464 11.798 86.72 11.254 Q 86.944 10.742 87.6 10.47 A 2.902 2.902 0 0 1 88.71 10.226 A 2.202 2.202 0 0 1 88.832 10.23 Q 88.256 10.39 87.936 10.774 Q 87.616 11.158 87.424 11.574 Q 87.232 12.022 87.136 12.518 Q 87.04 13.014 87.296 13.558 Z M 93.664 10.614 Q 93.792 10.07 94.272 9.542 Q 94.752 9.014 95.328 8.982 A 1.288 1.288 0 0 1 95.479 8.973 A 1.702 1.702 0 0 1 96.448 9.318 Q 97.024 9.718 97.248 10.262 Q 96.864 9.846 96.352 9.766 A 4.531 4.531 0 0 0 95.653 9.709 A 3.666 3.666 0 0 0 95.392 9.718 Q 94.944 9.782 94.464 9.958 Q 93.984 10.134 93.664 10.614 Z M 123.392 25.91 Q 123.072 26.358 122.448 26.662 A 1.788 1.788 0 0 1 121.665 26.861 A 1.356 1.356 0 0 1 121.28 26.806 Q 120.736 26.646 120.368 26.054 Q 120 25.462 119.968 24.918 Q 120.192 25.43 120.624 25.686 Q 121.056 25.942 121.472 26.07 Q 121.92 26.198 122.416 26.214 A 1.464 1.464 0 0 0 122.463 26.215 A 1.659 1.659 0 0 0 123.392 25.91 Z M 181.024 25.91 Q 180.704 26.358 180.08 26.662 A 1.788 1.788 0 0 1 179.297 26.861 A 1.356 1.356 0 0 1 178.912 26.806 Q 178.368 26.646 178 26.054 Q 177.632 25.462 177.6 24.918 Q 177.824 25.43 178.256 25.686 Q 178.688 25.942 179.104 26.07 Q 179.552 26.198 180.048 26.214 A 1.464 1.464 0 0 0 180.095 26.215 A 1.659 1.659 0 0 0 181.024 25.91 Z M 80.32 25.91 Q 79.936 26.326 79.28 26.55 A 2.061 2.061 0 0 1 78.615 26.67 A 1.422 1.422 0 0 1 78.112 26.582 Q 77.6 26.358 77.312 25.734 Q 77.024 25.11 77.024 24.566 Q 77.216 25.078 77.6 25.382 Q 77.984 25.686 78.4 25.846 Q 78.816 26.038 79.312 26.102 Q 79.808 26.166 80.32 25.91 Z M 142.944 25.91 Q 142.56 26.326 141.904 26.55 A 2.061 2.061 0 0 1 141.239 26.67 A 1.422 1.422 0 0 1 140.736 26.582 Q 140.224 26.358 139.936 25.734 Q 139.648 25.11 139.648 24.566 Q 139.84 25.078 140.224 25.382 Q 140.608 25.686 141.024 25.846 Q 141.44 26.038 141.936 26.102 Q 142.432 26.166 142.944 25.91 Z M 154.496 10.23 Q 154.88 9.846 155.52 9.638 Q 156.16 9.43 156.64 9.654 Q 157.152 9.878 157.408 10.486 A 2.655 2.655 0 0 1 157.636 11.516 A 2.072 2.072 0 0 1 157.632 11.638 Q 157.472 11.126 157.104 10.822 Q 156.736 10.518 156.32 10.358 Q 155.936 10.166 155.456 10.086 A 1.534 1.534 0 0 0 155.203 10.065 A 1.66 1.66 0 0 0 154.496 10.23 Z M 49.504 10.262 Q 49.504 9.718 49.792 9.11 Q 50.08 8.502 50.56 8.31 Q 51.072 8.118 51.696 8.342 Q 52.32 8.566 52.672 8.95 Q 52.192 8.726 51.728 8.79 Q 51.264 8.854 50.848 9.014 Q 50.464 9.174 50.064 9.462 Q 49.664 9.75 49.504 10.262 Z M 38.624 10.774 Q 37.92 10.614 37.072 10.71 Q 36.224 10.806 35.456 11.286 Q 35.904 11.574 36.4 11.638 A 5.002 5.002 0 0 0 37.04 11.68 A 4.266 4.266 0 0 0 37.344 11.67 Q 37.792 11.606 38.24 11.43 Q 38.688 11.254 39.04 10.934 Q 38.848 10.838 38.624 10.774 Z M 64.67 17.093 A 1.457 1.457 0 0 0 64.448 17.11 Q 64.864 17.174 65.168 17.414 Q 65.472 17.654 65.632 17.91 Q 65.792 18.198 65.84 18.582 A 1.414 1.414 0 0 1 65.851 18.757 A 1.34 1.34 0 0 1 65.728 19.318 Q 65.984 19.03 66.048 18.566 Q 66.112 18.102 65.888 17.75 Q 65.696 17.398 65.28 17.222 A 1.555 1.555 0 0 0 64.67 17.093 Z M 69.312 14.454 Q 68.96 14.454 68.512 14.262 Q 68.064 14.07 67.936 13.75 A 0.739 0.739 0 0 1 67.891 13.495 A 1.098 1.098 0 0 1 68.048 12.966 Q 68.288 12.534 68.544 12.31 Q 68.384 12.63 68.464 12.918 Q 68.544 13.206 68.64 13.494 Q 68.768 13.75 68.88 14.038 Q 68.992 14.326 69.312 14.454 Z M 131.936 14.454 Q 131.584 14.454 131.136 14.262 Q 130.688 14.07 130.56 13.75 A 0.739 0.739 0 0 1 130.515 13.495 A 1.098 1.098 0 0 1 130.672 12.966 Q 130.912 12.534 131.168 12.31 Q 131.008 12.63 131.088 12.918 Q 131.168 13.206 131.264 13.494 Q 131.392 13.75 131.504 14.038 Q 131.616 14.326 131.936 14.454 Z M 129.031 20.759 A 7.852 7.852 0 0 0 130.288 19.142 A 4.447 4.447 0 0 0 130.637 18.47 A 3.146 3.146 0 0 0 129.6 19.446 A 3.665 3.665 0 0 0 129.031 20.759 Z M 68.544 12.31 Q 68.448 11.99 68.48 11.51 Q 68.512 11.03 68.8 10.838 Q 69.056 10.614 69.536 10.71 Q 70.016 10.806 70.272 10.998 A 0.841 0.841 0 0 0 70.107 10.981 A 0.652 0.652 0 0 0 69.712 11.11 Q 69.472 11.286 69.248 11.446 Q 69.024 11.606 68.8 11.782 Q 68.576 11.958 68.544 12.31 Z M 131.168 12.31 Q 131.072 11.99 131.104 11.51 Q 131.136 11.03 131.424 10.838 Q 131.68 10.614 132.16 10.71 Q 132.64 10.806 132.896 10.998 A 0.841 0.841 0 0 0 132.731 10.981 A 0.652 0.652 0 0 0 132.336 11.11 Q 132.096 11.286 131.872 11.446 Q 131.648 11.606 131.424 11.782 Q 131.2 11.958 131.168 12.31 Z M 24.563 9.404 A 3.772 3.772 0 0 0 24.8 8.822 A 3.94 3.94 0 0 0 24.986 7.662 A 3.156 3.156 0 0 0 24.96 7.254 A 3.729 3.729 0 0 0 24.956 7.218 A 3.802 3.802 0 0 0 24.704 7.734 A 3.55 3.55 0 0 0 24.531 8.863 A 5.065 5.065 0 0 0 24.563 9.404 Z M 74.688 20.758 A 3.674 3.674 0 0 0 74.667 21.163 A 4.599 4.599 0 0 0 74.672 21.382 Q 74.688 21.718 74.848 22.006 A 1.306 1.306 0 0 0 74.93 21.543 A 1.472 1.472 0 0 0 74.928 21.462 Q 74.912 21.174 74.848 20.918 Q 74.848 20.79 74.816 20.646 Q 74.784 20.502 74.72 20.374 Q 74.72 20.534 74.688 20.758 Z M 137.312 20.758 A 3.674 3.674 0 0 0 137.291 21.163 A 4.599 4.599 0 0 0 137.296 21.382 Q 137.312 21.718 137.472 22.006 A 1.306 1.306 0 0 0 137.554 21.543 A 1.472 1.472 0 0 0 137.552 21.462 Q 137.536 21.174 137.472 20.918 Q 137.472 20.79 137.44 20.646 Q 137.408 20.502 137.344 20.374 Q 137.344 20.534 137.312 20.758 Z M 63.261 14.815 A 2.31 2.31 0 0 0 64.08 13.942 A 3.837 3.837 0 0 0 64.199 13.704 A 6.661 6.661 0 0 0 63.648 14.294 A 3.751 3.751 0 0 0 63.261 14.815 Z M 74.752 14.614 Q 74.688 14.678 74.656 14.742 Q 75.2 14.358 75.584 13.846 Q 75.328 14.006 75.12 14.198 Q 74.912 14.39 74.752 14.614 Z M 137.376 14.614 Q 137.312 14.678 137.28 14.742 Q 137.824 14.358 138.208 13.846 Q 137.952 14.006 137.744 14.198 Q 137.536 14.39 137.376 14.614 Z M 16.224 12.406 Q 16.128 12.822 16.16 13.142 Q 16.256 12.79 16.224 12.406 Z"/></g></svg>